<?xml version="1.0" encoding="utf-8"?>
<!-- Generator: Adobe Illustrator 17.1.0, SVG Export Plug-In . SVG Version: 6.00 Build 0)  -->
<!DOCTYPE svg PUBLIC "-//W3C//DTD SVG 1.1//EN" "http://www.w3.org/Graphics/SVG/1.1/DTD/svg11.dtd">
<svg version="1.1" xmlns="http://www.w3.org/2000/svg" xmlns:xlink="http://www.w3.org/1999/xlink" x="0px" y="0px" width="139.1px"
	 height="14px" viewBox="0 0 139.1 14" enable-background="new 0 0 139.1 14" xml:space="preserve">
<g id="Слой_1">
	<g>
		<polygon fill="#5D687A" points="21.1,7.1 17.6,14 14.7,14 18.1,7.1 14.7,0.1 17.7,0.1 		"/>
		<polygon fill="#5D687A" points="26.3,7.1 29.7,0.1 26.8,0.1 23.3,7.1 26.8,14 29.8,14 		"/>
		<path fill="#5D687A" d="M0,7c0,1,0.2,1.9,0.5,2.7c0.4,0.9,0.9,1.6,1.5,2.2s1.4,1.1,2.3,1.5c0.9,0.4,1.8,0.6,2.8,0.6
			c1.3,0,2.5-0.3,3.6-1s1.9-1.5,2.6-2.5l-1.5-1.5c-0.2,0.4-0.5,0.8-0.9,1.2s-0.7,0.7-1.1,0.9c-0.4,0.3-0.8,0.5-1.3,0.6
			C8,11.9,7.5,12,7.1,12c-0.7,0-1.3-0.1-1.9-0.4C4.5,11.3,4,11,3.6,10.5c-0.5-0.4-0.8-1-1.1-1.6C2.2,8.4,2.1,7.7,2.1,7.1
			c0-0.7,0.1-1.3,0.4-1.9S3.1,4,3.6,3.6s1-0.8,1.6-1.1s1.3-0.4,1.9-0.4c0.5,0,1,0.1,1.5,0.3c0.5,0.2,0.9,0.4,1.3,0.7
			c0.4,0.3,0.8,0.7,1.1,1.1c0.3,0.4,0.6,0.9,0.8,1.4l1.7-1.1c-0.3-0.6-0.7-1.2-1.1-1.8s-1-1-1.5-1.4c-0.6-0.4-1.2-0.7-1.8-0.9
			C8.5,0.1,7.8,0,7.1,0c-1,0-1.9,0.2-2.8,0.6C3.4,0.9,2.7,1.4,2.1,2.1S0.9,3.4,0.5,4.3C0.2,5.2,0,6.1,0,7z"/>
		<polygon fill="#5D687A" points="42.5,2.1 42.5,0.1 31.9,0.1 31.9,14 42.5,14 42.5,12 34,12 34,2.1 		"/>
		<rect x="35.4" y="6" fill="#5D687A" width="6.9" height="2"/>
		<polygon fill="#5D687A" points="58.8,0.1 53.7,10.5 48.5,0.1 45.4,0.1 45.4,14 47.6,14 47.6,2.9 53.1,14 54.2,14 59.9,2.8 
			59.9,14 62,14 62,0.1 		"/>
		<polygon fill="#5D687A" points="68.4,14 79.2,14 72.3,0.1 71.1,0.1 64.1,14 66.5,14 71.7,3.6 75.8,12 69.4,12 		"/>
		<polygon fill="#5D687A" points="78,0.1 78,2.1 82.9,2.1 82.9,14 85,14 85,2.1 90,2.1 90,0.1 		"/>
		<polygon fill="#5D687A" points="102.8,0.1 94.9,11.4 94.9,0.1 92.8,0.1 92.8,14 95.6,14 103.7,2.6 103.7,14 105.8,14 105.8,0.1 		
			"/>
		<rect x="108.7" y="0.1" fill="#5D687A" width="2.1" height="13.9"/>
		<polygon fill="#5D687A" points="119,7.1 122.4,0.1 120,0.1 117,6.1 112.1,6.1 112.1,8.1 117,8.1 120,14 122.4,14 		"/>
		<polygon fill="#5D687A" points="128.2,14 139.1,14 132.1,0.1 131,0.1 124,14 126.4,14 131.6,3.6 135.7,12 129.2,12 		"/>
	</g>
</g>
<g id="Слой_2">
</g>
<g id="Слой_3">
</g>
<g id="Слой_4">
</g>
<g id="Слой_5">
</g>
</svg>
