<?xml version="1.0" encoding="utf-8"?>
<!-- Generator: Adobe Illustrator 17.1.0, SVG Export Plug-In . SVG Version: 6.00 Build 0)  -->
<!DOCTYPE svg PUBLIC "-//W3C//DTD SVG 1.1//EN" "http://www.w3.org/Graphics/SVG/1.1/DTD/svg11.dtd">
<svg version="1.1" xmlns="http://www.w3.org/2000/svg" xmlns:xlink="http://www.w3.org/1999/xlink" x="0px" y="0px" width="22.5px"
	 height="24.5px" viewBox="0 0 22.5 24.5" enable-background="new 0 0 22.5 24.5" xml:space="preserve">
<g id="Слой_1">
	<g>
		<path fill="#FFFFFF" d="M22.2,14.2C23,8,21.9,4.2,19.9,2.4l0,0C16.8-0.6,6.1-1,2.4,2.5C0.7,4.3,0.1,6.9,0,10
			c-0.1,3.2-0.1,9.1,5.4,10.8h0l0,2.5c0,0,0,1,0.6,1.2c0.7,0.2,1.1-0.2,3.3-2.9c3.8,0.3,6.7-0.4,7.1-0.5
			C17.2,20.7,21.5,20.2,22.2,14.2L22.2,14.2z M9.7,19.8c0,0-2.4,3-3.2,3.8c-0.2,0.3-0.5,0.2-0.5-0.3c0-0.3,0-4.1,0-4.1
			c-4.7-1.3-4.4-6.4-4.4-9.1c0.1-2.7,0.5-4.8,2-6.3c3.3-3.1,12.6-2.4,15-0.2c2.9,2.6,1.9,9.9,1.9,10.1c-0.6,5-4.1,5.3-4.8,5.5
			C15.5,19.3,13,20,9.7,19.8L9.7,19.8z"/>
		<path fill="#FFFFFF" d="M11.1,4.4c-0.4,0-0.4,0.6,0,0.6c3,0,5.6,2.1,5.6,6c0,0.4,0.6,0.4,0.6,0h0C17.2,6.9,14.5,4.4,11.1,4.4
			L11.1,4.4z"/>
		<path fill="#FFFFFF" d="M15.1,10.4c0,0.4,0.6,0.4,0.6,0c0.1-2.3-1.4-4.2-4.1-4.4c-0.4,0-0.4,0.6,0,0.6
			C13.9,6.8,15.1,8.4,15.1,10.4L15.1,10.4z"/>
		<path fill="#FFFFFF" d="M14.4,13.1c-0.5-0.3-1-0.1-1.2,0.2l-0.4,0.6c-0.2,0.3-0.6,0.3-0.6,0.3c-3.1-0.8-3.9-4-3.9-4s0-0.4,0.2-0.7
			L9,8.9c0.3-0.2,0.5-0.8,0.2-1.3C8.4,6.3,7.9,5.8,7.7,5.4C7.4,5.1,7,5,6.6,5.2h0C5.7,5.8,4.7,6.7,5,7.7c0.5,1,1.5,4.4,4.6,6.9
			c1.5,1.2,3.8,2.4,4.7,2.7l0,0c1,0.3,1.9-0.7,2.4-1.6v0c0.2-0.4,0.1-0.9-0.2-1.1C16,14.1,15.1,13.5,14.4,13.1L14.4,13.1z"/>
		<path fill="#FFFFFF" d="M12,8.3c1,0.1,1.5,0.6,1.5,1.6c0,0.4,0.6,0.4,0.6,0c-0.1-1.4-0.8-2.1-2.1-2.2C11.7,7.6,11.6,8.3,12,8.3
			L12,8.3z"/>
	</g>
</g>
</svg>
