<?xml version="1.0" encoding="utf-8"?>
<!-- Generator: Adobe Illustrator 17.1.0, SVG Export Plug-In . SVG Version: 6.00 Build 0)  -->
<!DOCTYPE svg PUBLIC "-//W3C//DTD SVG 1.1//EN" "http://www.w3.org/Graphics/SVG/1.1/DTD/svg11.dtd">
<svg version="1.1" xmlns="http://www.w3.org/2000/svg" xmlns:xlink="http://www.w3.org/1999/xlink" x="0px" y="0px" width="23px"
	 height="23.1px" viewBox="0 0 23 23.1" enable-background="new 0 0 23 23.1" xml:space="preserve">
<g id="Слой_1">
	<path fill="#FFFFFF" d="M19.6,3.4c-2.2-2.2-5-3.4-8.1-3.4C5.2,0,0.1,5.1,0.1,11.4c0,2,0.5,4,1.5,5.7L0,23.1l6.1-1.6
		c1.7,0.9,3.6,1.4,5.5,1.4h0c6.3,0,11.4-5.1,11.4-11.4C23,8.4,21.8,5.5,19.6,3.4 M11.5,20.9L11.5,20.9c-1.7,0-3.4-0.5-4.8-1.3
		l-0.3-0.2l-3.6,0.9l1-3.5l-0.2-0.4C2.5,15,2,13.2,2,11.4c0-5.2,4.3-9.5,9.5-9.5c2.5,0,4.9,1,6.7,2.8C20,6.5,21,8.9,21,11.4
		C21,16.7,16.8,20.9,11.5,20.9 M16.7,13.8c-0.3-0.1-1.7-0.8-2-0.9c-0.3-0.1-0.5-0.1-0.6,0.1c-0.2,0.3-0.7,0.9-0.9,1.1
		c-0.2,0.2-0.3,0.2-0.6,0.1c-0.3-0.1-1.2-0.4-2.3-1.4c-0.8-0.8-1.4-1.7-1.6-2c-0.2-0.3,0-0.4,0.1-0.6C9,10.1,9.1,9.9,9.3,9.7
		c0.1-0.2,0.2-0.3,0.3-0.5c0.1-0.2,0-0.4,0-0.5C9.5,8.6,8.9,7.2,8.7,6.7C8.4,6.1,8.2,6.2,8,6.2c-0.2,0-0.4,0-0.5,0
		C7.3,6.2,7,6.2,6.7,6.5c-0.3,0.3-1,1-1,2.4s1,2.8,1.2,3c0.1,0.2,2,3.1,4.9,4.3c0.7,0.3,1.2,0.5,1.6,0.6c0.7,0.2,1.3,0.2,1.8,0.1
		c0.5-0.1,1.7-0.7,1.9-1.4c0.2-0.7,0.2-1.2,0.2-1.4C17.2,14,17,14,16.7,13.8"/>
</g>
</svg>
