<?xml version="1.0" encoding="utf-8"?>
<!-- Generator: Adobe Illustrator 17.1.0, SVG Export Plug-In . SVG Version: 6.00 Build 0)  -->
<!DOCTYPE svg PUBLIC "-//W3C//DTD SVG 1.1//EN" "http://www.w3.org/Graphics/SVG/1.1/DTD/svg11.dtd">
<svg version="1.1" xmlns="http://www.w3.org/2000/svg" xmlns:xlink="http://www.w3.org/1999/xlink" x="0px" y="0px" width="16.9px"
	 height="16.9px" viewBox="0 0 16.9 16.9" enable-background="new 0 0 16.9 16.9" xml:space="preserve">
<g id="Слой_1">
	<path opacity="0.5" fill="none" stroke="#000000" stroke-miterlimit="10" d="M16.3,13.4c0,0-0.3,2.7-4,2.9
		c-3.3,0.2-6.9-3.5-7.6-4.2c0,0,0,0,0,0c-0.5-0.5-4.5-4.2-4.2-7.6c0.2-3.7,2.9-4,2.9-4l2.9,4.2c0,0-1.6,0.4-1.7,1.7
		c-0.1,1.1,1.7,3,2.2,3.4l0,0c0,0,0,0,0.1,0.1c0,0,0,0,0,0c0.5,0.5,2.3,2.3,3.4,2.2c1.3-0.1,1.7-1.7,1.7-1.7L16.3,13.4z"/>
</g>
</svg>
