<?xml version="1.0" encoding="utf-8"?>
<!-- Generator: Adobe Illustrator 17.1.0, SVG Export Plug-In . SVG Version: 6.00 Build 0)  -->
<!DOCTYPE svg PUBLIC "-//W3C//DTD SVG 1.1//EN" "http://www.w3.org/Graphics/SVG/1.1/DTD/svg11.dtd">
<svg version="1.1" xmlns="http://www.w3.org/2000/svg" xmlns:xlink="http://www.w3.org/1999/xlink" x="0px" y="0px" width="253.7px"
	 height="25.9px" viewBox="0 0 253.7 25.9" enable-background="new 0 0 253.7 25.9" xml:space="preserve">
<g id="Слой_1">
	<g>
		<path d="M37.7,13l-6.4,12.7H27l6.2-12.7L27,0.1h4.4L37.7,13z M46.6,13.1l6.3-12.9h-4.4L42.1,13l6.4,12.7h4.3L46.6,13.1z M0,12.9
			c0,1.8,0.3,3.5,1,5c0.7,1.6,1.6,2.9,2.8,4.1s2.6,2.1,4.1,2.8c1.6,0.7,3.3,1,5.1,1c2.4,0,4.6-0.6,6.5-1.8s3.5-2.7,4.8-4.7l-2.8-2.8
			c-0.4,0.8-1,1.5-1.6,2.2s-1.3,1.2-2.1,1.7c-0.7,0.5-1.5,0.8-2.3,1.1C14.7,21.9,13.9,22,13,22c-1.3,0-2.4-0.2-3.6-0.7
			c-1.1-0.5-2.1-1.1-2.9-2c-0.8-0.8-1.5-1.8-2-2.9c-0.5-1.1-0.7-2.3-0.7-3.5c0-1.2,0.2-2.4,0.7-3.5s1.2-2.1,2-2.9s1.8-1.5,2.9-2
			s2.3-0.7,3.6-0.7c0.9,0,1.8,0.2,2.7,0.5s1.7,0.8,2.5,1.3c0.8,0.6,1.5,1.2,2.1,2c0.6,0.8,1.1,1.6,1.5,2.5L25,8
			c-0.5-1.2-1.2-2.3-2.1-3.2c-0.8-1-1.8-1.8-2.8-2.5c-1-0.7-2.1-1.3-3.3-1.7C15.6,0.2,14.3,0,13,0c-1.8,0-3.5,0.3-5.1,1
			C6.3,1.7,5,2.6,3.8,3.8S1.7,6.3,1,7.9C0.3,9.5,0,11.2,0,12.9z M76.3,3.8V0.1H56.8v25.6h19.5v-3.7H60.7V3.8H76.3z M63.3,11.1v3.7
			H76v-3.7H63.3z M106.3,0.1l-9.5,19.2L87.4,0.1h-5.7v25.6h4V5.4l10.2,20.4h2.1l10.3-20.5v20.5h3.9V0.1H106.3z M123.8,25.7h19.9
			L131,0.1h-2.1L116,25.7h4.4l9.5-19.1l7.5,15.5h-11.8L123.8,25.7z M141.5,0.1v3.6h9v22h3.9v-22h9.1V0.1H141.5z M187.1,0.1
			l-14.5,20.8V0.1h-3.9v25.6h5.2l14.8-20.9v20.9h3.9V0.1H187.1z M197.8,0.1v25.6h3.9V0.1H197.8z M216.8,13.1L223,0.1h-4.4l-5.5,11.1
			h-9.1v3.7h9.1l5.5,10.9h4.3L216.8,13.1z M233.8,25.7h19.9L241,0.1h-2.1L226,25.7h4.4l9.5-19.1l7.5,15.5h-11.8L233.8,25.7z"/>
	</g>
</g>
</svg>
