<?xml version="1.0" encoding="utf-8"?>
<!-- Generator: Adobe Illustrator 17.1.0, SVG Export Plug-In . SVG Version: 6.00 Build 0)  -->
<!DOCTYPE svg PUBLIC "-//W3C//DTD SVG 1.1//EN" "http://www.w3.org/Graphics/SVG/1.1/DTD/svg11.dtd">
<svg version="1.1" xmlns="http://www.w3.org/2000/svg" xmlns:xlink="http://www.w3.org/1999/xlink" x="0px" y="0px" width="136.4px"
	 height="32.5px" viewBox="0 0 136.4 32.5" enable-background="new 0 0 136.4 32.5" xml:space="preserve">
<g id="Слой_1">
	<g opacity="0.7">
		<g>
			<path fill="#5D687A" d="M40.7,12.6h1.7l2.1,6.3l2.1-6.3h1.7l1.5,9h-1.6l-1-5.7l-1.9,5.7h-1.5l-1.9-5.7l-1,5.7h-1.7L40.7,12.6z
				 M58.9,12.6h1.7l3.4,9h-1.8l-0.7-1.9H58l-0.7,1.9h-1.8L58.9,12.6z M59.8,15l-1.2,3.1H61L59.8,15z M78.8,14.2l-1.2,1.1
				c-0.8-0.9-1.7-1.3-2.7-1.3c-0.9,0-1.6,0.3-2.2,0.9c-0.6,0.6-0.9,1.3-0.9,2.2c0,0.6,0.1,1.1,0.4,1.6c0.3,0.5,0.6,0.8,1.1,1.1
				c0.5,0.3,1,0.4,1.6,0.4c0.5,0,1-0.1,1.4-0.3c0.4-0.2,0.9-0.5,1.4-1l1.2,1.2c-0.7,0.7-1.3,1.1-1.9,1.4c-0.6,0.2-1.3,0.4-2,0.4
				c-1.4,0-2.5-0.4-3.4-1.3c-0.9-0.9-1.3-2-1.3-3.4c0-0.9,0.2-1.7,0.6-2.4c0.4-0.7,1-1.2,1.7-1.7c0.7-0.4,1.6-0.6,2.4-0.6
				c0.7,0,1.4,0.2,2.1,0.5C77.7,13.2,78.3,13.6,78.8,14.2L78.8,14.2z M85.3,12.6H87v9h-1.7V12.6z M91.3,12.6H93v9h-1.7V12.6z
				 M97.4,12.6H99v9h-1.7V12.6z M105.2,12.6h5v1.7h-1.6v7.3h-1.7v-7.3h-1.6V12.6z M119.2,12.6h1.7l3.5,9h-1.8l-0.7-1.9h-3.7
				l-0.7,1.9h-1.8L119.2,12.6z M120.1,15l-1.2,3.1h2.4L120.1,15z M130.8,21.6v-9h4.7v1.7h-3V16h0.4c0.7,0,1.4,0.1,1.8,0.3
				c0.5,0.2,0.9,0.5,1.2,0.9c0.3,0.5,0.5,1,0.5,1.6c0,0.6-0.1,1.1-0.4,1.5c-0.2,0.4-0.6,0.7-1,0.9c-0.4,0.2-1,0.3-1.7,0.3H130.8z
				 M132.5,17.6V20h0.4c0.8,0,1.3-0.1,1.5-0.3c0.2-0.2,0.3-0.5,0.3-0.8c0-0.9-0.6-1.3-1.9-1.3H132.5z"/>
			<g>
				<path fill="#5D687A" d="M0,20L8.6,1.9l0-0.1l0,0l0,0L8.8,2l9.2,4.7l0.3,0.2L30.6,0l0,0l0,0l0,0l0.1,0l0,0v0l2.5,3.1l0,0v0
					l-1,14.9l3.9,11.9l0,0.1l-0.1,0L24.2,29L7.9,32.5l-0.1,0l0,0L0,20L0,20L0,20z M26.2,20.8l-1.5-9.5l-6.4,6.2l0,0.1l-0.1-0.1h0
					l0,0c0,0,0,0,0,0c0,0-0.1,0-0.1-0.1v0l-2.6-2.5l-3.8-3.7l-1.5,9.6l3.2,3.4l0.8-5.2l0-0.1h0.1h0h0l0,0l3.7,4.2L22,19l0,0h0h0h0.1
					l0,0.1l0.8,5.2L26.2,20.8z M24.8,11.3l1.5,9.4l5.6-2.6L24.8,11.3z M26.3,20.9L23,24.5l12.7,5.4L26.3,20.9z M22.9,24.6L22.9,24.6
					l0-0.2L22,19.2l-3.8,4.1l6.1,5.5L35.6,30L22.9,24.6z M18.1,23.4L18.1,23.4l-3.8-4.2l-0.8,5.2l0,0.2l-5.4,7.7l16-3.5L18.1,23.4z
					 M13.4,24.5L10.1,21L8,32.1L13.4,24.5z M10.1,20.5l1.5-9.4l0-0.1L8.8,2.1L8.5,15.3L10.1,20.5z M11.8,11.1l3.6,3.5l2.7,2.6
					L18.3,7L8.9,2.2L11.8,11.1z M18.3,17.2l6.4-6.2l0.1-0.1l0,0l5.8-10.6L23.8,4L18.5,7L18.3,17.2z M7.8,32.2L10,20.8l-1.6-5.5
					l-8.2,4.7L7.8,32.2z M0.3,19.8l8.1-4.6L8.6,2.3L0.3,19.8z M26.4,20.8l9.5,9l-3.8-11.6l0,0L26.4,20.8z M33.1,3.4l-8.2,7.7
					l7.2,6.9L33.1,3.4z M25,10.7l8-7.5l-2.3-3L25,10.7z"/>
				<polygon fill="#5D687A" points="26.3,20.8 24.7,11.1 18.2,17.4 11.7,11.1 10.1,20.8 13.5,24.4 14.3,19.1 14.4,19.1 18.2,23.3 
					22.1,19.1 22.1,19.1 22.9,24.4 				"/>
			</g>
		</g>
	</g>
</g>
<g id="Слой_2">
</g>
<g id="Слой_3">
</g>
<g id="Слой_4">
</g>
<g id="Слой_5">
</g>
</svg>
