<?xml version="1.0" encoding="utf-8"?>
<!-- Generator: Adobe Illustrator 17.1.0, SVG Export Plug-In . SVG Version: 6.00 Build 0)  -->
<!DOCTYPE svg PUBLIC "-//W3C//DTD SVG 1.1//EN" "http://www.w3.org/Graphics/SVG/1.1/DTD/svg11.dtd">
<svg version="1.1" xmlns="http://www.w3.org/2000/svg" xmlns:xlink="http://www.w3.org/1999/xlink" x="0px" y="0px" width="134.6px"
	 height="86.8px" viewBox="0 0 134.6 86.8" enable-background="new 0 0 134.6 86.8" xml:space="preserve">
<g id="Слой_1">
	<linearGradient id="SVGID_2_" gradientUnits="userSpaceOnUse" x1="0" y1="43.3799" x2="134.5903" y2="43.3799">
		<stop  offset="0" style="stop-color:#009FE3"/>
		<stop  offset="1" style="stop-color:#00BE95"/>
	</linearGradient>
	<path fill="url(#SVGID_2_)" d="M131.8,15.4v6.1c-0.4,0.8-1.1,1.2-1.9,1.2c-1.1,0-1.5-0.6-1.5-1.9v-5.4h-2.8V21c0,3,1.4,4.4,4.1,4.4
		c0.9,0,1.6-0.3,2.1-0.6v0.4h2.8v-9.8H131.8z M118.8,12.4h-2.1L111,25.3h3.1l1.2-2.7h4.9l1.2,2.7h3.1L118.8,12.4z M119,20h-2.6
		l1.3-3.1L119,20z M103.8,62.6v0.2c-0.5-0.2-1.2-0.4-1.9-0.4c-2.4,0-4.8,1.7-4.8,5c0,2.2,1,3.8,2.6,4.6l-2.2,0.9l0.2,0.4
		c0.6,1.6,2.3,2.6,4.4,2.6c2.9,0,4.6-1.7,4.6-4.7v-8.6H103.8z M103.8,68.9c-0.2,0.5-0.8,1-1.6,1c-1.4,0-2.3-0.9-2.3-2.4
		c0-1.8,1.2-2.4,2.2-2.4c0.7,0,1.3,0.2,1.6,0.7V68.9z M101.9,73.3c-1.2,0-1.7-0.7-1.8-1l0-0.1c0.5,0.2,1.1,0.3,1.8,0.3
		c0.8,0,1.4-0.1,1.9-0.4C103.6,73,103,73.3,101.9,73.3z M91,59.5h-2.1l-5.7,12.9h3.1l1.1-2.7h4.9l1.2,2.7h3.1L91,59.5z M91.3,67.1
		h-2.6l1.3-3.1L91.3,67.1z M95.9,33.7V16.9c0-1.7-1.3-2.7-2.6-2.8L42,2c-0.3-0.2-0.8-0.4-1.5-0.4c-0.6,0-1.2,0.2-1.7,0.7l-0.3,0.2
		l-0.1,0.3c-4.5,11.6-11.4,29.3-11.9,30.3c-0.8,1.7-0.4,2.9,0.1,3.6c0.2,0.4,0.8,1.4,1.4,2.2c0.9,1.3,2.6,1.7,2.8,1.8l0.1,0h19.2
		c1,0.4,3.4,1.4,4.1,2.7c0.2,0.4,0.2,0.8,0.1,1.2C53,48.2,42,74.1,41,76.4c-0.3,0.4-0.7,1.2-0.6,2.2c0.1,0.6,0.5,1.4,1.6,2
		c1.7,0.9,11.7,5.6,12.1,5.8l0.2,0.1c0.2,0.1,0.9,0.2,1.7,0.2c0.7,0,1.6-0.1,2.2-0.6c0.6-0.5,1-1.2,1.1-2.1
		c0.1-1.9,0.3-7.5,1.7-11.6c1-3,5.3-15.1,7.6-21.5h2c2.9,0,4.2-2,4.5-3.2l2.8-7.1h3.9c1.8,0,2.6-1.1,2.9-1.8l1.3-2.1h7.4
		c0.7,0,1.3-0.3,1.8-0.8C95.9,35.2,95.9,34.1,95.9,33.7z M72.4,46.8L72.3,47c-0.1,0.3-0.4,1.1-1.8,1.1h-1C69.8,47.4,70,47,70,47
		l0-0.2c0,0,1-4.4,4.6-5.8L72.4,46.8z M67.3,46.1c-0.6,1.6-7.7,21.4-9,25.5c-1.4,4.4-1.7,10.2-1.8,12.3c-0.3,0.1-0.8,0-1.3-0.1
		c-3.6-1.7-10.6-4.9-11.8-5.6c0,0-0.1,0-0.1-0.1c0,0,0,0,0,0l0.1-0.2l0.1-0.2C44,76.5,55.6,49.4,57,45.5c0.4-1.2,0.3-2.4-0.2-3.4
		c-0.3-0.5-0.6-1-1.1-1.4h14.6C68.6,42.4,67.6,44.6,67.3,46.1z M82,37.7L82,37.7c0,0.1-0.1,0.1-0.2,0.1H37.7l0.7-1.5
		c0.8-2,3.1-2,3.2-2h40.2c1,0,1.5,0.5,1.8,0.9L82,37.7z M86.2,33.9c-0.7-1.2-2-2.5-4.3-2.5H41.7c-0.2,0-4.4,0-5.9,3.7l-1.3,2.6h-3.3
		c-0.3-0.1-0.7-0.3-0.9-0.6c-0.6-0.9-1.3-2.1-1.3-2.1l-0.1-0.2l0,0c0-0.1,0-0.3,0.2-0.5C29.8,33,38.7,10,40.8,4.7l46.1,10.9
		l-2.3,8.9c-0.1,0.3-0.6,2-2.9,2H39.4v2.9h42.3c3.7,0,5.3-2.8,5.7-4.2l2.3-9l3.1,0.7l0.2,0.1H93v16.8l0,0.1H86.2z M30.9,52.9v3.7
		c-0.5-0.2-1.2-0.3-1.9-0.3c-2.8,0-4.9,2.2-4.9,5.1c0,3,1.9,5,4.7,5c0.9,0,1.6-0.3,2.1-0.6v0.4h2.8V52.9H30.9z M30.9,59.7v3
		c-0.3,0.5-1,1.1-1.7,1.1c-1.4,0-2.2-0.9-2.2-2.4c0-1.7,1.2-2.4,2.3-2.4C30,59,30.5,59.2,30.9,59.7z M17.9,53.4h-5.3v12.9h2.9v-4.1
		h2.3c5.1,0,5.4-3.4,5.4-4.4C23.4,56.2,22.7,53.4,17.9,53.4z M20.3,57.8c0,0.4,0,1.6-2.5,1.6h-2.3v-3.2H18
		C20.1,56.2,20.3,57.1,20.3,57.8z M18.2,9.4l-0.3,0.4c-0.3,0.4-0.6,0.6-0.9,0.6c-0.3,0-0.7,0-0.7-1.5v-3h2.9V3.1h-2.9V1.3h-2.8v1.8
		h-1.6v2.7h1.6v3.6c0,2.3,1.2,3.6,3.2,3.6c1.3,0,2.5-0.7,3.1-1.7l0.2-0.3L18.2,9.4z M5.3,0H0v12.9h2.9V8.8h2.3c5,0,5.4-3.4,5.4-4.4
		C10.7,2.8,10,0,5.3,0z M7.7,4.4c0,0.4,0,1.6-2.5,1.6H2.9V2.8h2.4C7.5,2.8,7.7,3.7,7.7,4.4z"/>
</g>
<g id="Слой_2">
</g>
<g id="Слой_3">
</g>
<g id="Слой_4">
</g>
<g id="Слой_5">
</g>
</svg>
