<?xml version="1.0" encoding="utf-8"?>
<!-- Generator: Adobe Illustrator 17.1.0, SVG Export Plug-In . SVG Version: 6.00 Build 0)  -->
<!DOCTYPE svg PUBLIC "-//W3C//DTD SVG 1.1//EN" "http://www.w3.org/Graphics/SVG/1.1/DTD/svg11.dtd">
<svg version="1.1" xmlns="http://www.w3.org/2000/svg" xmlns:xlink="http://www.w3.org/1999/xlink" x="0px" y="0px" width="84.5px"
	 height="84.3px" viewBox="0 0 84.5 84.3" enable-background="new 0 0 84.5 84.3" xml:space="preserve">
<g id="Слой_1">
	<linearGradient id="SVGID_2_" gradientUnits="userSpaceOnUse" x1="0" y1="42.1605" x2="84.5003" y2="42.1605">
		<stop  offset="0" style="stop-color:#009FE3"/>
		<stop  offset="1" style="stop-color:#00BE95"/>
	</linearGradient>
	<path fill="url(#SVGID_2_)" d="M82.8,73L69,59.2c-1.1-1.1-2.6-1.7-4.2-1.7c-0.5,0-1.1,0.1-1.6,0.2l-6-6c4.6-5.5,7.3-12.5,7.3-20.2
		C64.6,14.1,50.4,0,33,0C15.6,0,1.5,14.1,1.5,31.5h2.9C4.4,15.8,17.2,2.9,33,2.9c15.8,0,28.6,12.8,28.6,28.6
		c0,15.8-12.8,28.6-28.6,28.6v2.9c6.9,0,13.2-2.2,18.4-6l6.4,6.4c-0.4,1.9,0.2,3.9,1.6,5.3l13.8,13.8c1.1,1.1,2.6,1.7,4.2,1.7
		c1.6,0,3.1-0.6,4.2-1.7l1.2-1.2C85.1,79.1,85.1,75.3,82.8,73z M59.4,60.4c-0.1,0.1-0.2,0.2-0.3,0.3l-5.4-5.4c0.5-0.5,1-0.9,1.5-1.4
		l5.3,5.3L59.4,60.4z M80.7,79.3l-1.2,1.2c-1.1,1.1-3.1,1.1-4.2,0L61.5,66.7c-1.2-1.2-1.2-3.1,0-4.2l1.2-1.2
		c0.6-0.6,1.3-0.9,2.1-0.9c0.8,0,1.5,0.3,2.1,0.9l13.8,13.8C81.9,76.3,81.9,78.2,80.7,79.3z M52.4,23.7L46.7,18L46,17.3l-5.7-5.7
		c-2.5-2.5-6.7-2.5-9.2,0L20.8,22l0,0.6c0,1.6-0.4,2.8-1.2,3.6c-1.4,1.4-3.6,1.3-3.7,1.3l-0.6,0L12.8,30c-2.5,2.5-2.5,6.6,0,9.2
		l1.4,1.4L0,54.8l2.1,2.1l14.2-14.2l2.9,2.9l2.6,2.6L7.5,62.3l2.1,2.1l14.2-14.2l1,1c1.2,1.2,2.8,1.9,4.6,1.9c1.7,0,3.4-0.7,4.6-1.9
		l2.5-2.5l0-0.6c0,0-0.1-2.3,1.3-3.6c0.8-0.8,2-1.2,3.6-1.2l0.6,0l10.4-10.4C54.9,30.3,54.9,26.2,52.4,23.7z M50.3,30.8l-9.5,9.5
		c-2.1,0.1-3.8,0.8-5.1,2.1c-1.7,1.7-2,4-2.1,5.1L32,49.1c-1.3,1.3-3.7,1.3-5,0l-6.4-6.4l-5.7-5.7c-1.4-1.4-1.4-3.6,0-5l1.7-1.6
		c1.1-0.1,3.4-0.4,5.1-2.1c0.7-0.7,1.3-1.6,1.6-2.6l12.4,12.4l2.1-2.1L24.4,22.6l8.9-8.9c1.4-1.4,3.6-1.4,5,0l5.7,5.7l0.7,0.6
		l5.7,5.7c0.7,0.7,1,1.6,1,2.5C51.4,29.2,51,30.1,50.3,30.8z"/>
</g>
</svg>
