<?xml version="1.0" encoding="utf-8"?>
<!-- Generator: Adobe Illustrator 17.1.0, SVG Export Plug-In . SVG Version: 6.00 Build 0)  -->
<!DOCTYPE svg PUBLIC "-//W3C//DTD SVG 1.1//EN" "http://www.w3.org/Graphics/SVG/1.1/DTD/svg11.dtd">
<svg version="1.1" xmlns="http://www.w3.org/2000/svg" xmlns:xlink="http://www.w3.org/1999/xlink" x="0px" y="0px" width="108.7px"
	 height="83.4px" viewBox="0 0 108.7 83.4" enable-background="new 0 0 108.7 83.4" xml:space="preserve">
<g id="Слой_1">
	<linearGradient id="SVGID_2_" gradientUnits="userSpaceOnUse" x1="0" y1="41.7204" x2="108.7474" y2="41.7204">
		<stop  offset="0" style="stop-color:#009FE3"/>
		<stop  offset="1" style="stop-color:#00BE95"/>
	</linearGradient>
	<path fill="url(#SVGID_2_)" d="M19.2,1.4c-9,0-16.2,7.3-16.2,16.2c0,9,7.3,16.2,16.2,16.2c9,0,16.2-7.3,16.2-16.2
		C35.4,8.7,28.1,1.4,19.2,1.4z M19.2,31c-7.4,0-13.4-6-13.4-13.4c0-7.4,6-13.4,13.4-13.4c7.4,0,13.4,6,13.4,13.4
		C32.5,25,26.5,31,19.2,31z M21.3,18.8c5.7,0,6.2-3.8,6.2-4.9c0-2.2-1.1-4.9-6.2-4.9h-5.9v7.1h-3v2.7h3v2h-3v2.7h3v1.8h2.8v-1.8h3.9
		v-2.7h-3.9v-2H21.3z M18.2,16.1v-4.4h3.2c3.2,0,3.2,1.6,3.2,2.1c0,1.5-1.1,2.2-3.4,2.2h-1.8v0H18.2z M107.4,9.4l-3.8-3.8l-0.4-0.4
		l-3.8-3.8c-1.9-1.9-4.9-1.9-6.7,0l-7,7l0,0.6c0,0.9-0.2,1.6-0.6,2c-0.7,0.7-1.9,0.7-2.1,0.7c0,0,0,0,0,0l-0.6,0l-1.8,1.8
		c-0.9,0.9-1.4,2.1-1.4,3.4c0,1.3,0.5,2.5,1.4,3.4l0.6,0.6L71.9,30l2,2l9.1-9.1l1.1,1.1l0.4,0.4l1.4,1.4L77,35l2,2l9.1-9.1l0.4,0.4
		c0.9,0.9,2.2,1.4,3.4,1.4c1.2,0,2.4-0.5,3.4-1.4l1.8-1.8l0-0.6c0,0,0-1.3,0.7-2.1c0.4-0.5,1.1-0.7,2-0.6l0.6,0l7-7
		C109.2,14.3,109.2,11.3,107.4,9.4z M105.3,14.1l-6.2,6.2c-1.8,0.1-2.9,0.9-3.5,1.5c-1.1,1.2-1.4,2.7-1.5,3.5l-1,1
		c-0.7,0.7-1.9,0.7-2.7,0l-3.8-3.8l-0.4-0.4l-3.8-3.8c-0.4-0.4-0.6-0.8-0.6-1.3c0-0.5,0.2-1,0.6-1.3l1-1c0.9-0.1,2.4-0.4,3.5-1.5
		c0.3-0.3,0.6-0.7,0.9-1.2l7.7,7.7l2-2L89.1,9l5.6-5.6c0.7-0.7,2-0.7,2.7,0l3.8,3.8l0.4,0.4l3.8,3.8
		C106.1,12.2,106.1,13.4,105.3,14.1z M101.8,28.8c0,9-7.3,16.3-16.3,16.3c-9,0-16.3-7.3-16.3-16.3h-2.9c0,6.9,3.6,12.9,9.1,16.3h-17
		c-0.7-3-3.3-5.2-6.5-5.2c-3.2,0-5.8,2.2-6.5,5.2H29.2c5.5-3.4,9.1-9.4,9.1-16.3h-2.9c0,9-7.3,16.3-16.3,16.3
		c-9,0-16.3-7.3-16.3-16.3H0C0,39.4,8.6,48,19.2,48h26.3c0.6,2.5,2.5,4.5,5,5v6.6h-5.3c-1.7,0-3,0-4,0.9c-0.9,0.9-1,2.2-1,3.4h2.9
		c0-1,0.1-1.3,0.1-1.3c0.2-0.1,1.2-0.1,2-0.1h13.4c0.8,0,1.7,0,1.9,0.1c0,0,0.2,0.3,0.2,1.3h2.9c0-1.2-0.1-2.5-1-3.4
		c-1-1-2.3-0.9-4-0.9h-5.2V53c2.5-0.6,4.5-2.5,5-5h27c10.6,0,19.2-8.6,19.2-19.2H101.8z M52,50.3c-2.1,0-3.8-1.7-3.8-3.8
		c0-2.1,1.7-3.8,3.8-3.8c2.1,0,3.8,1.7,3.8,3.8C55.7,48.6,54,50.3,52,50.3z M95.1,64.3H8.8c-2.4,0-4.3,1.9-4.3,4.3v6.1
		C4.5,77,6.4,79,8.8,79h2.9v0.2c0,2.4,1.9,4.3,4.3,4.3h72c2.4,0,4.3-1.9,4.3-4.3V79h2.9c2.4,0,4.3-1.9,4.3-4.3v-6.1
		C99.5,66.2,97.5,64.3,95.1,64.3z M89.4,79.1c0,0.8-0.6,1.4-1.4,1.4h-72c-0.8,0-1.4-0.6-1.4-1.4V79h74.9V79.1z M96.6,74.7
		c0,0.8-0.6,1.4-1.4,1.4H8.8c-0.8,0-1.4-0.6-1.4-1.4v-6.1c0-0.8,0.6-1.4,1.4-1.4h86.4c0.8,0,1.4,0.6,1.4,1.4V74.7z"/>
</g>
<g id="Слой_2">
</g>
<g id="Слой_3">
</g>
<g id="Слой_4">
</g>
<g id="Слой_5">
</g>
</svg>
