<?xml version="1.0" encoding="utf-8"?>
<!-- Generator: Adobe Illustrator 17.1.0, SVG Export Plug-In . SVG Version: 6.00 Build 0)  -->
<!DOCTYPE svg PUBLIC "-//W3C//DTD SVG 1.1//EN" "http://www.w3.org/Graphics/SVG/1.1/DTD/svg11.dtd">
<svg version="1.1" xmlns="http://www.w3.org/2000/svg" xmlns:xlink="http://www.w3.org/1999/xlink" x="0px" y="0px" width="82.9px"
	 height="63.7px" viewBox="0 0 82.9 63.7" enable-background="new 0 0 82.9 63.7" xml:space="preserve">
<g id="Слой_1">
	<g>
		<path fill="#FFFFFF" d="M26.8,0c5.8,6.5,11.3,15.2,11.3,24.1c0,19.8-13.7,32.1-26.5,39.8L-0.2,53C7,47,10.6,39,10.6,30.8
			c0-6.8-3.4-12.3-6.8-16.4L26.8,0z"/>
		<path fill="#FFFFFF" d="M71.8,0c5.8,6.5,11.3,15.2,11.3,24.1c0,19.8-13.7,32.1-26.5,39.8L44.8,53c7.2-6,10.8-14,10.8-22.2
			c0-6.8-3.4-12.3-6.8-16.4L71.8,0z"/>
	</g>
</g>
<g id="Слой_2">
</g>
<g id="Слой_3">
</g>
<g id="Слой_4">
</g>
<g id="Слой_5">
</g>
</svg>
