<?xml version="1.0" encoding="utf-8"?>
<!-- Generator: Adobe Illustrator 17.1.0, SVG Export Plug-In . SVG Version: 6.00 Build 0)  -->
<!DOCTYPE svg PUBLIC "-//W3C//DTD SVG 1.1//EN" "http://www.w3.org/Graphics/SVG/1.1/DTD/svg11.dtd">
<svg version="1.1" xmlns="http://www.w3.org/2000/svg" xmlns:xlink="http://www.w3.org/1999/xlink" x="0px" y="0px" width="172px"
	 height="200.1px" viewBox="0 0 172 200.1" enable-background="new 0 0 172 200.1" xml:space="preserve">
<g id="Слой_1">
	<g>
		<defs>
			<path id="SVGID_11763_" d="M218.7,194.1c0,3.9-3.1,7-7,7H7c-3.9,0-7-3.1-7-7V-23c0-3.9,3.1-7,7-7h204.7c3.9,0,7,3.1,7,7V194.1z"
				/>
		</defs>
		<clipPath id="SVGID_2_">
			<use xlink:href="#SVGID_11763_"  overflow="visible"/>
		</clipPath>
		<radialGradient id="SVGID_4_" cx="85.7762" cy="93.4753" r="101.9711" gradientUnits="userSpaceOnUse">
			<stop  offset="0" style="stop-color:#FFFFFF"/>
			<stop  offset="0.8182" style="stop-color:#FFFFFF;stop-opacity:0"/>
		</radialGradient>
		<circle clip-path="url(#SVGID_2_)" fill="url(#SVGID_4_)" cx="85.8" cy="93.5" r="102"/>
		<g clip-path="url(#SVGID_2_)">
			
				<rect x="20" y="116.7" transform="matrix(0.8159 0.5783 -0.5783 0.8159 100.4237 17.8052)" fill="#CFD8DD" width="4.5" height="99.8"/>
			
				<rect x="20.2" y="116.1" transform="matrix(0.8159 0.5783 -0.5783 0.8159 99.91 18.1925)" fill="#96A8B0" width="2.3" height="99.8"/>
			
				<rect x="39.9" y="118.5" transform="matrix(0.8159 0.5783 -0.5783 0.8159 105.1089 6.642)" fill="#CFD8DD" width="4.5" height="99.8"/>
			
				<rect x="40.1" y="117.8" transform="matrix(0.8159 0.5783 -0.5783 0.8159 104.5951 7.0293)" fill="#96A8B0" width="2.3" height="99.8"/>
			
				<linearGradient id="SVGID_6_" gradientUnits="userSpaceOnUse" x1="-1535.3834" y1="1178.8529" x2="-1485.3448" y2="1178.8529" gradientTransform="matrix(0.8159 0.5783 -0.5783 0.8159 1973.1743 40.9748)">
				<stop  offset="0" style="stop-color:#FF4C52"/>
				<stop  offset="0.5" style="stop-color:#FD1945"/>
				<stop  offset="1" style="stop-color:#FC4B4C"/>
			</linearGradient>
			<path fill="url(#SVGID_6_)" d="M42,110.5c-4.9,6.9,0.3,19,11.5,27s24.4,8.9,29.3,1.9l2.6-3.6l-40.8-28.9L42,110.5z"/>
			
				<ellipse transform="matrix(0.8159 0.5783 -0.5783 0.8159 82.1027 -15.247)" fill="#FF877E" cx="65" cy="121.3" rx="25" ry="15.8"/>
			
				<linearGradient id="SVGID_8_" gradientUnits="userSpaceOnUse" x1="-1532.214" y1="1143.9504" x2="-1488.5142" y2="1143.9504" gradientTransform="matrix(0.8159 0.5783 -0.5783 0.8159 1973.1743 40.9748)">
				<stop  offset="0" style="stop-color:#FF4C52"/>
				<stop  offset="0.5" style="stop-color:#FD1945"/>
				<stop  offset="1" style="stop-color:#FC4B4C"/>
			</linearGradient>
			<path fill="url(#SVGID_8_)" d="M106.5,100.5c7-9.8,4.7-23.5-5.2-30.4s-23.5-4.7-30.4,5.2l-23.7,33.4c-4.1,5.8,0.6,16.1,10.4,23.1
				c9.8,7,21.1,8,25.2,2.2L106.5,100.5z"/>
			<path fill="#DB2333" d="M92.5,100.9l-25.3,35.7c-1.5-0.5-3-1-4.5-1.8l18.8-26.5l-8.6-0.8l12.4-7.4L92.5,100.9z"/>
			<path fill="#DB2333" d="M82,99.7l-12.5,7.4l-2-0.2l-14.7,20.7c-1.3-1.3-2.1-2.4-3-3.7l18.1-25.5L82,99.7z"/>
			
				<linearGradient id="SVGID_10_" gradientUnits="userSpaceOnUse" x1="-1499.1515" y1="1180.7086" x2="-1499.1515" y2="1111.4244" gradientTransform="matrix(0.8159 0.5783 -0.5783 0.8159 1973.1743 40.9748)">
				<stop  offset="0" style="stop-color:#FFFFFF;stop-opacity:0.1"/>
				<stop  offset="1" style="stop-color:#FFFFFF;stop-opacity:0.35"/>
			</linearGradient>
			<path fill="url(#SVGID_10_)" d="M85.5,107.3l13.9-19.7c2.4-3.4,3.4-7.1,3.1-10.2c4.3,5.8,4.6,13.9,0.2,20.1l-28.4,40.1
				c-2.8,0.1-5.9-0.5-9.2-1.8L85,108C85.2,107.8,85.3,107.6,85.5,107.3z"/>
			
				<linearGradient id="SVGID_12_" gradientUnits="userSpaceOnUse" x1="-1521.5734" y1="1180.7086" x2="-1521.5734" y2="1111.4244" gradientTransform="matrix(0.8159 0.5783 -0.5783 0.8159 1973.1743 40.9748)">
				<stop  offset="0" style="stop-color:#FFFFFF;stop-opacity:0.2"/>
				<stop  offset="1" style="stop-color:#FFFFFF;stop-opacity:0.5"/>
			</linearGradient>
			<path fill="url(#SVGID_12_)" d="M71.3,97.3c-0.2,0.2-0.3,0.5-0.5,0.8l-19.7,27.8c-2.2-2.6-3.9-5.4-4.7-8l28.4-40.1
				c4.4-6.2,12.2-8.6,19.1-6.4c-3,0.7-6.2,3-8.6,6.3L71.3,97.3z"/>
		</g>
	</g>
</g>
<g id="Слой_2">
</g>
<g id="Слой_3">
</g>
<g id="Слой_4">
</g>
<g id="Слой_5">
</g>
</svg>
