<?xml version="1.0" encoding="utf-8"?>
<!-- Generator: Adobe Illustrator 17.1.0, SVG Export Plug-In . SVG Version: 6.00 Build 0)  -->
<!DOCTYPE svg PUBLIC "-//W3C//DTD SVG 1.1//EN" "http://www.w3.org/Graphics/SVG/1.1/DTD/svg11.dtd">
<svg version="1.1" xmlns="http://www.w3.org/2000/svg" xmlns:xlink="http://www.w3.org/1999/xlink" x="0px" y="0px" width="239.3px"
	 height="224.3px" viewBox="0 0 239.3 224.3" enable-background="new 0 0 239.3 224.3" xml:space="preserve">
<g id="Слой_1">
	<g>
		<defs>
			<path id="SVGID_11739_" d="M341.9,217.3c0,3.9-3.1,7-7,7H7c-3.9,0-7-3.1-7-7V0c0-3.9,3.1-7,7-7h327.9c3.9,0,7,3.1,7,7V217.3z"/>
		</defs>
		<clipPath id="SVGID_2_">
			<use xlink:href="#SVGID_11739_"  overflow="visible"/>
		</clipPath>
		<radialGradient id="SVGID_4_" cx="97.8895" cy="126.7003" r="124.6994" gradientUnits="userSpaceOnUse">
			<stop  offset="0" style="stop-color:#FFFFFF"/>
			<stop  offset="0.8696" style="stop-color:#FFFFFF;stop-opacity:0"/>
		</radialGradient>
		<circle clip-path="url(#SVGID_2_)" fill="url(#SVGID_4_)" cx="97.9" cy="126.7" r="124.7"/>
		<g clip-path="url(#SVGID_2_)">
			<polygon fill="#454547" points="147.5,95.1 23.4,251.7 22.1,261 145.4,106.6 			"/>
			
				<linearGradient id="SVGID_6_" gradientUnits="userSpaceOnUse" x1="1622.4703" y1="-604.8525" x2="1799.892" y2="-604.8525" gradientTransform="matrix(0.9308 -0.3655 0.3655 0.9308 -1291.4799 1354.9557)">
				<stop  offset="0" style="stop-color:#535353"/>
				<stop  offset="1" style="stop-color:#757575"/>
			</linearGradient>
			<polygon fill="url(#SVGID_6_)" points="147.5,95.1 23.4,251.7 12.4,236.4 135.7,82 			"/>
			
				<linearGradient id="SVGID_8_" gradientUnits="userSpaceOnUse" x1="1579.3679" y1="-626.3869" x2="1793.6803" y2="-626.3869" gradientTransform="matrix(0.9308 -0.3655 0.3655 0.9308 -1291.4799 1354.9557)">
				<stop  offset="0" style="stop-color:#616161"/>
				<stop  offset="1" style="stop-color:#ABABAB"/>
			</linearGradient>
			<polygon fill="url(#SVGID_8_)" points="135.7,82 12.4,236.4 -36.8,229.1 86.5,74.7 			"/>
			
				<ellipse transform="matrix(0.9308 -0.3655 0.3655 0.9308 -81.9601 13.178)" fill="#424242" cx="-6.2" cy="223.1" rx="9.2" ry="5.3"/>
			<path fill="#212121" d="M2.4,219.7c0.7,1.9-0.4,4.2-2.8,6.1c1.3-1.5,1.9-3.3,1.3-4.8c-1-2.7-5.3-3.5-9.6-1.8
				c-4.1,1.6-6.7,4.9-5.9,7.6c-0.1-0.1-0.1-0.2-0.2-0.3c-1.1-2.7,1.9-6.4,6.6-8.3C-3.4,216.3,1.3,217,2.4,219.7z"/>
			<g>
				<polygon fill="#91A3AD" points="50,222.7 54.5,234.3 53.6,238.4 62.8,261.8 61.5,263.7 59.5,263.5 51,241.8 48.4,241.1 
					44.1,230.2 40.9,229.6 40.2,227.8 46.5,224.1 				"/>
				<polygon fill="#D6DDE1" points="50,240.5 52.7,241.1 61.5,263.7 64.2,260.5 55.2,237.8 56.2,233.6 51.3,221.1 45.4,228.6 				
					"/>
				<polygon fill="#E9EDF1" points="46.1,220.2 51.4,221.1 45.4,228.6 40.1,227.8 				"/>
			</g>
			<g>
				<polygon fill="#91A3AD" points="61.4,208.1 65.9,219.6 65,223.8 74.2,247.2 72.9,249.1 70.9,248.8 62.4,227.1 59.8,226.5 
					55.5,215.6 52.2,215 51.5,213.2 57.9,209.5 				"/>
				<polygon fill="#D6DDE1" points="61.4,225.8 64,226.5 72.9,249.1 75.5,245.9 66.6,223.1 67.5,219 62.6,206.5 56.7,214 				"/>
				<polygon fill="#E9EDF1" points="57.5,205.6 62.7,206.5 56.7,214 51.5,213.1 				"/>
			</g>
			<g>
				<polygon fill="#91A3AD" points="72.8,193.7 77.3,205.2 76.4,209.3 85.6,232.7 84.3,234.6 82.4,234.4 73.8,212.7 71.2,212.1 
					66.9,201.2 63.7,200.6 63,198.8 69.4,195 				"/>
				<polygon fill="#D6DDE1" points="72.9,211.4 75.5,212.1 84.3,234.6 87,231.5 78.1,208.7 79,204.5 74.1,192.1 68.2,199.6 				"/>
				<polygon fill="#E9EDF1" points="68.9,191.2 74.2,192 68.2,199.6 63,198.7 				"/>
			</g>
			<g>
				<polygon fill="#91A3AD" points="84.3,178.9 88.8,190.4 87.9,194.6 97.1,218 95.8,219.8 93.8,219.6 85.3,197.9 82.7,197.3 
					78.4,186.4 75.2,185.8 74.5,184 80.8,180.3 				"/>
				<polygon fill="#D6DDE1" points="84.3,196.6 87,197.3 95.8,219.8 98.5,216.7 89.5,193.9 90.5,189.8 85.6,177.3 79.7,184.8 				
					"/>
				<polygon fill="#E9EDF1" points="80.4,176.4 85.7,177.3 79.7,184.8 74.4,183.9 				"/>
			</g>
			<g>
				<polygon fill="#91A3AD" points="95.8,164.5 100.3,176 99.4,180.1 108.5,203.5 107.3,205.4 105.3,205.2 96.8,183.5 94.2,182.9 
					89.9,172 86.6,171.4 85.9,169.6 92.3,165.8 				"/>
				<polygon fill="#D6DDE1" points="95.8,182.2 98.4,182.9 107.3,205.4 109.9,202.2 101,179.5 101.9,175.3 97,162.9 91.1,170.3 				
					"/>
				<polygon fill="#E9EDF1" points="91.9,162 97.1,162.8 91.1,170.3 85.9,169.5 				"/>
			</g>
			<g>
				<polygon fill="#91A3AD" points="107.1,149.8 111.7,161.3 110.7,165.5 119.9,188.9 118.7,190.8 116.7,190.5 108.2,168.9 
					105.5,168.2 101.3,157.3 98,156.7 97.3,154.9 103.7,151.2 				"/>
				<polygon fill="#D6DDE1" points="107.2,167.6 109.8,168.2 118.7,190.8 121.3,187.6 112.4,164.8 113.3,160.7 108.4,148.2 
					102.5,155.7 				"/>
				<polygon fill="#E9EDF1" points="103.3,147.3 108.5,148.2 102.5,155.7 97.3,154.9 				"/>
			</g>
			<g>
				<polygon fill="#91A3AD" points="118.6,135.4 123.1,146.9 122.2,151.1 131.4,174.5 130.1,176.3 128.1,176.1 119.6,154.4 
					117,153.8 112.7,142.9 109.5,142.3 108.8,140.5 115.1,136.8 				"/>
				<polygon fill="#D6DDE1" points="118.6,153.1 121.3,153.8 130.1,176.3 132.8,173.2 123.8,150.4 124.8,146.3 119.9,133.8 
					114,141.3 				"/>
				<polygon fill="#E9EDF1" points="114.7,132.9 120,133.7 114,141.3 108.7,140.4 				"/>
			</g>
			<g>
				<polygon fill="#91A3AD" points="130.1,120.6 134.7,132.1 133.7,136.3 142.9,159.7 141.7,161.5 139.7,161.3 131.2,139.6 
					128.5,139 124.3,128.1 121,127.5 120.3,125.7 126.7,122 				"/>
				<polygon fill="#D6DDE1" points="130.2,138.3 132.8,139 141.7,161.5 144.3,158.4 135.4,135.6 136.3,131.5 131.4,119 125.5,126.5 
									"/>
				<polygon fill="#E9EDF1" points="126.3,118.1 131.5,119 125.5,126.5 120.3,125.6 				"/>
			</g>
			<g>
				<polygon fill="#91A3AD" points="141.6,106.2 146.1,117.7 145.2,121.8 154.4,145.2 153.1,147.1 151.1,146.9 142.6,125.2 
					140,124.6 135.7,113.7 132.5,113.1 131.8,111.3 138.1,107.5 				"/>
				<polygon fill="#D6DDE1" points="141.6,123.9 144.3,124.6 153.1,147.1 155.8,143.9 146.8,121.2 147.8,117 142.9,104.6 137,112 
									"/>
				<polygon fill="#E9EDF1" points="137.7,103.7 143,104.5 137,112 131.7,111.2 				"/>
			</g>
		</g>
	</g>
</g>
<g id="Слой_2">
</g>
<g id="Слой_3">
</g>
<g id="Слой_4">
</g>
<g id="Слой_5">
</g>
</svg>
