<?xml version="1.0" encoding="utf-8"?>
<!-- Generator: Adobe Illustrator 17.1.0, SVG Export Plug-In . SVG Version: 6.00 Build 0)  -->
<!DOCTYPE svg PUBLIC "-//W3C//DTD SVG 1.1//EN" "http://www.w3.org/Graphics/SVG/1.1/DTD/svg11.dtd">
<svg version="1.1" xmlns="http://www.w3.org/2000/svg" xmlns:xlink="http://www.w3.org/1999/xlink" x="0px" y="0px" width="153.9px"
	 height="187.2px" viewBox="0 0 153.9 187.2" enable-background="new 0 0 153.9 187.2" xml:space="preserve">
<g id="Слой_1">
	<g>
		<defs>
			<path id="SVGID_11745_" d="M217.3,181.2c0,3.9-3.1,7-7,7H7c-3.9,0-7-3.1-7-7V-37.4c0-3.9,3.1-7,7-7h203.3c3.9,0,7,3.1,7,7V181.2z
				"/>
		</defs>
		<clipPath id="SVGID_2_">
			<use xlink:href="#SVGID_11745_"  overflow="visible"/>
		</clipPath>
		<radialGradient id="SVGID_4_" cx="73.7011" cy="93.2863" r="103.7211" gradientUnits="userSpaceOnUse">
			<stop  offset="0" style="stop-color:#FFFFFF"/>
			<stop  offset="0.751" style="stop-color:#FFFFFF;stop-opacity:0"/>
		</radialGradient>
		<circle clip-path="url(#SVGID_2_)" fill="url(#SVGID_4_)" cx="73.7" cy="93.3" r="103.7"/>
		<g clip-path="url(#SVGID_2_)">
			<polygon fill="#91A3AD" points="38.9,122.8 35.7,123.1 -5.9,196.1 -7.2,189.9 33.3,118.7 32.9,113.7 40.9,99.6 46.2,110 			"/>
			<polygon fill="#91A3AD" points="50.8,143.5 47.6,143.8 6,216.8 4.6,210.6 45.1,139.4 44.7,134.4 52.8,120.3 58.1,130.7 			"/>
			<polygon fill="#91A3AD" points="62.4,164 59.2,164.4 17.7,237.4 16.3,231.1 56.8,160 56.4,154.9 64.4,140.8 69.7,151.2 			"/>
			<polygon fill="#D6DDE1" points="37.1,121.8 33.9,122.1 -7.7,195.1 -9.1,188.8 31.4,117.7 31.1,112.7 39.1,98.6 44.4,109 			"/>
			<polygon fill="#D6DDE1" points="49,142.5 45.8,142.8 4.2,215.8 2.8,209.5 43.3,138.4 42.9,133.4 51,119.2 56.3,129.7 			"/>
			<polygon fill="#D6DDE1" points="60.6,163 57.4,163.3 15.8,236.3 14.5,230.1 55,158.9 54.6,153.9 62.6,139.8 67.9,150.2 			"/>
			
				<linearGradient id="SVGID_6_" gradientUnits="userSpaceOnUse" x1="-1595.2933" y1="1392.2061" x2="-1520.3876" y2="1392.2061" gradientTransform="matrix(0.869 0.4948 -0.4948 0.869 2121.7209 -358.0628)">
				<stop  offset="0" style="stop-color:#A9A9A9"/>
				<stop  offset="1" style="stop-color:#7B7B7B"/>
			</linearGradient>
			<path fill="url(#SVGID_6_)" d="M109.9,102.5c-3.5,6.1-11.1,9.1-20.6,8.9L53.5,50.3c9.2-0.1,20.2,2.9,30.8,9
				C105.2,71.3,116.7,90.6,109.9,102.5z"/>
			
				<linearGradient id="SVGID_8_" gradientUnits="userSpaceOnUse" x1="-1533.8876" y1="1428.4957" x2="-1520.3876" y2="1428.4957" gradientTransform="matrix(0.869 0.4948 -0.4948 0.869 2121.7209 -358.0628)">
				<stop  offset="0" style="stop-color:#2C2C2C"/>
				<stop  offset="1" style="stop-color:#393939"/>
			</linearGradient>
			<path fill="url(#SVGID_8_)" d="M89.3,111.5c9.5,0.2,17.1-2.8,20.6-8.9L82,151.6l-16.3,1.3L89.3,111.5z"/>
			
				<linearGradient id="SVGID_10_" gradientUnits="userSpaceOnUse" x1="-1595.2933" y1="1419.7948" x2="-1533.8876" y2="1419.7948" gradientTransform="matrix(0.869 0.4948 -0.4948 0.869 2121.7209 -358.0628)">
				<stop  offset="0" style="stop-color:#6B6B6B"/>
				<stop  offset="1" style="stop-color:#454545"/>
			</linearGradient>
			<polygon fill="url(#SVGID_10_)" points="53.5,50.3 89.3,111.5 65.7,152.9 30.2,91.2 			"/>
		</g>
	</g>
</g>
<g id="Слой_2">
</g>
<g id="Слой_3">
</g>
<g id="Слой_4">
</g>
<g id="Слой_5">
</g>
</svg>
