<?xml version="1.0" encoding="utf-8"?>
<!-- Generator: Adobe Illustrator 17.1.0, SVG Export Plug-In . SVG Version: 6.00 Build 0)  -->
<!DOCTYPE svg PUBLIC "-//W3C//DTD SVG 1.1//EN" "http://www.w3.org/Graphics/SVG/1.1/DTD/svg11.dtd">
<svg version="1.1" xmlns="http://www.w3.org/2000/svg" xmlns:xlink="http://www.w3.org/1999/xlink" x="0px" y="0px" width="198.6px"
	 height="224.3px" viewBox="0 0 198.6 224.3" enable-background="new 0 0 198.6 224.3" xml:space="preserve">
<g id="Слой_1">
	<g>
		<defs>
			<path id="SVGID_11720_" d="M218.7,217.3c0,3.9-3.1,7-7,7H7c-3.9,0-7-3.1-7-7V0c0-3.9,3.1-7,7-7h204.7c3.9,0,7,3.1,7,7V217.3z"/>
		</defs>
		<clipPath id="SVGID_2_">
			<use xlink:href="#SVGID_11720_"  overflow="visible"/>
		</clipPath>
		<radialGradient id="SVGID_4_" cx="83.05" cy="123.3607" r="100.9711" gradientUnits="userSpaceOnUse">
			<stop  offset="0" style="stop-color:#FFFFFF"/>
			<stop  offset="0.9644" style="stop-color:#FFFFFF;stop-opacity:0"/>
		</radialGradient>
		<circle clip-path="url(#SVGID_2_)" fill="url(#SVGID_4_)" cx="83.1" cy="123.4" r="101"/>
		<g clip-path="url(#SVGID_2_)">
			<polygon fill="#91A3AD" points="27.6,174.3 24.6,174.5 3.1,211.6 1.8,205.7 22.3,170.3 22,165.6 29.8,152.2 34.7,162.1 			"/>
			<polygon fill="#91A3AD" points="38.8,194 35.7,194.3 14.2,231.4 12.9,225.4 33.4,190.1 33.1,185.3 40.9,171.9 45.8,181.9 			"/>
			<polygon fill="#91A3AD" points="49.7,213.6 46.6,213.9 25.1,251 23.8,245 44.3,209.7 44,204.9 51.8,191.6 56.7,201.5 			"/>
			<polygon fill="#D6DDE1" points="25.9,173.3 22.9,173.5 1.3,210.6 0.1,204.7 20.6,169.3 20.3,164.6 28,151.2 33,161.1 			"/>
			<polygon fill="#D6DDE1" points="37,193 34,193.3 12.5,230.4 11.2,224.4 31.7,189.1 31.4,184.3 39.2,170.9 44.1,180.9 			"/>
			<polygon fill="#D6DDE1" points="47.9,212.6 44.9,212.9 23.4,250 22.1,244 42.6,208.7 42.3,203.9 50.1,190.6 55,200.5 			"/>
			
				<linearGradient id="SVGID_6_" gradientUnits="userSpaceOnUse" x1="-2642.8545" y1="917.6528" x2="-2566.7043" y2="917.6528" gradientTransform="matrix(0.8647 0.5023 -0.5023 0.8647 2782.1062 652.4395)">
				<stop  offset="0" style="stop-color:#A9A9A9"/>
				<stop  offset="1" style="stop-color:#7B7B7B"/>
			</linearGradient>
			<polygon fill="url(#SVGID_6_)" points="42,107.9 58.8,108 97.3,164.2 74.8,164.5 			"/>
			
				<linearGradient id="SVGID_8_" gradientUnits="userSpaceOnUse" x1="-2642.8545" y1="943.6653" x2="-2586.0442" y2="943.6653" gradientTransform="matrix(0.8647 0.5023 -0.5023 0.8647 2782.1062 652.4395)">
				<stop  offset="0" style="stop-color:#6B6B6B"/>
				<stop  offset="1" style="stop-color:#454545"/>
			</linearGradient>
			<polygon fill="url(#SVGID_8_)" points="20,145.7 42,107.9 74.8,164.5 52.9,202.3 			"/>
			
				<linearGradient id="SVGID_10_" gradientUnits="userSpaceOnUse" x1="-2586.0442" y1="954.1259" x2="-2566.7043" y2="954.1259" gradientTransform="matrix(0.8647 0.5023 -0.5023 0.8647 2782.1062 652.4395)">
				<stop  offset="0" style="stop-color:#2C2C2C"/>
				<stop  offset="1" style="stop-color:#393939"/>
			</linearGradient>
			<polygon fill="url(#SVGID_10_)" points="74.8,164.5 97.3,164.2 75.4,202 52.9,202.3 			"/>
			<polygon fill="#ECF0F4" points="81.3,69.3 113.2,126.6 119.3,126.4 86.7,69.5 			"/>
			<polygon fill="#AFBEC5" points="113.2,126.6 104.5,141.7 110.5,141.5 119.3,126.4 			"/>
			<polygon fill="#AFBEC5" points="99.6,150 91.3,164.3 97.3,164.2 105.7,149.8 			"/>
			<path fill="#EBEFF3" d="M104.5,141.7c-1.5-2.8-4.9-1.2-5.5,2.1s0.7,6.2,0.7,6.2l6.1-0.2c0,0-3.1-3.5-0.4-8.1L104.5,141.7z"/>
			
				<linearGradient id="SVGID_12_" gradientUnits="userSpaceOnUse" x1="-2628.2844" y1="891.0458" x2="-2571.8735" y2="891.0458" gradientTransform="matrix(0.8647 0.5023 -0.5023 0.8647 2782.1062 652.4395)">
				<stop  offset="0" style="stop-color:#EAEDF0"/>
				<stop  offset="1" style="stop-color:#D1DBDD"/>
			</linearGradient>
			<path fill="url(#SVGID_12_)" d="M113.2,126.6l-8.8,15.1c-1.5-2.8-4.9-1.2-5.5,2.1s0.7,6.2,0.7,6.2l-8.3,14.3L58.8,108l8.6-14.8
				c9.4-0.9,5.7-9.7,5.7-9.7l8.3-14.2L113.2,126.6z M87.6,106.2c-3.9-0.4-7.6,4.2-8.2,10.3s1.9,11.4,5.8,11.8
				c3.9,0.4,7.6-4.2,8.2-10.3S91.4,106.7,87.6,106.2z"/>
			<path fill="#B1C0C8" d="M82.7,127.3c-2.4-1.9-3.9-6.1-3.3-10.8c0.7-6.1,4.4-10.7,8.2-10.3c3.2,0.4,5.5,4.1,5.8,8.9
				c-0.7-3.3-2.6-5.8-5.1-6.1c-3.6-0.4-7,3.8-7.6,9.5C80.3,122,81.1,125.3,82.7,127.3z"/>
		</g>
	</g>
	<g>
		<defs>
			<path id="SVGID_11770_" d="M-31.1,481.2c0,3.9-3.1,7-7,7h-329.7c-3.9,0-7-3.1-7-7V0c0-3.9,3.1-7,7-7h329.7c3.9,0,7,3.1,7,7V481.2
				z"/>
		</defs>
		<clipPath id="SVGID_14_">
			<use xlink:href="#SVGID_11770_"  overflow="visible"/>
		</clipPath>
		<radialGradient id="SVGID_16_" cx="-226.4017" cy="288.5888" r="282.6265" gradientUnits="userSpaceOnUse">
			<stop  offset="1.976285e-002" style="stop-color:#FFFFFF"/>
			<stop  offset="0.7628" style="stop-color:#FFFFFF;stop-opacity:0"/>
		</radialGradient>
		<circle clip-path="url(#SVGID_14_)" fill="url(#SVGID_16_)" cx="-226.4" cy="288.6" r="282.6"/>
		<radialGradient id="SVGID_18_" cx="-226.4017" cy="288.5888" r="282.6265" gradientUnits="userSpaceOnUse">
			<stop  offset="1.976285e-002" style="stop-color:#FFFFFF"/>
			<stop  offset="0.7628" style="stop-color:#FFFFFF;stop-opacity:0"/>
		</radialGradient>
		<circle clip-path="url(#SVGID_14_)" fill="url(#SVGID_18_)" cx="-226.4" cy="288.6" r="282.6"/>
	</g>
</g>
<g id="Слой_2">
</g>
<g id="Слой_3">
</g>
<g id="Слой_4">
</g>
<g id="Слой_5">
</g>
</svg>
