<?xml version="1.0" encoding="utf-8"?>
<!-- Generator: Adobe Illustrator 17.1.0, SVG Export Plug-In . SVG Version: 6.00 Build 0)  -->
<!DOCTYPE svg PUBLIC "-//W3C//DTD SVG 1.1//EN" "http://www.w3.org/Graphics/SVG/1.1/DTD/svg11.dtd">
<svg version="1.1" xmlns="http://www.w3.org/2000/svg" xmlns:xlink="http://www.w3.org/1999/xlink" x="0px" y="0px" width="192.8px"
	 height="193.2px" viewBox="0 0 192.8 193.2" enable-background="new 0 0 192.8 193.2" xml:space="preserve">
<g id="Слой_1">
	<g>
		<defs>
			<path id="SVGID_11751_" d="M340.7,185.2c0,3.9-3.1,7-7,7H7c-3.9,0-7-3.1-7-7V-30.9c0-3.9,3.1-7,7-7h326.7c3.9,0,7,3.1,7,7V185.2z
				"/>
		</defs>
		<clipPath id="SVGID_2_">
			<use xlink:href="#SVGID_11751_"  overflow="visible"/>
		</clipPath>
		<radialGradient id="SVGID_4_" cx="92.6962" cy="109.0955" r="115.4711" gradientUnits="userSpaceOnUse">
			<stop  offset="0" style="stop-color:#FFFFFF"/>
			<stop  offset="0.834" style="stop-color:#FFFFFF;stop-opacity:0"/>
		</radialGradient>
		<circle clip-path="url(#SVGID_2_)" fill="url(#SVGID_4_)" cx="92.7" cy="109.1" r="115.5"/>
		<g clip-path="url(#SVGID_2_)">
			
				<linearGradient id="SVGID_6_" gradientUnits="userSpaceOnUse" x1="825.5406" y1="-1916.9019" x2="893.5073" y2="-1916.9019" gradientTransform="matrix(0.8735 0.4868 -0.4868 0.8735 -1682.1113 1436.3907)">
				<stop  offset="0" style="stop-color:#222222"/>
				<stop  offset="1" style="stop-color:#363837"/>
			</linearGradient>
			<path fill="url(#SVGID_6_)" d="M-19.6,148.9c-0.6,1.1-1.1,2.2-1.6,3.4l40.1,67l8.4-15.1l-42.5-62.8L-19.6,148.9z"/>
			
				<linearGradient id="SVGID_8_" gradientUnits="userSpaceOnUse" x1="825.5406" y1="-1946.2963" x2="974.0419" y2="-1946.2963" gradientTransform="matrix(0.8735 0.4868 -0.4868 0.8735 -1682.1113 1436.3907)">
				<stop  offset="0" style="stop-color:#424242"/>
				<stop  offset="1" style="stop-color:#5F5F5F"/>
			</linearGradient>
			<path fill="url(#SVGID_8_)" d="M116.1,210.4c-4.4,7.8-12.6,12.8-23.1,14.8c-1.8-2-4.1-3.9-6.9-5.5c-8-4.4-16.5-4.3-19,0.3
				c-0.8,1.4-0.9,3.1-0.5,4.9c-11.6-2.1-24-6.5-36.2-13.2c-1.8-1-3.7-2.1-5.4-3.2l-40.1-67c0.4-1.1,1-2.3,1.6-3.4
				c4.2-7.6,12.1-12.5,22.1-14.6c1.5,1.5,3.4,2.8,5.4,4c7.9,4.4,16.5,4.3,19-0.3c0.7-1.2,0.9-2.5,0.6-4c12.3,1.9,25.6,6.4,38.5,13.6
				c1.4,0.8,2.7,1.5,4,2.3l41.2,68.8C117,208.7,116.6,209.6,116.1,210.4z"/>
			
				<linearGradient id="SVGID_10_" gradientUnits="userSpaceOnUse" x1="850.2908" y1="-1963.4175" x2="949.6264" y2="-1963.4175" gradientTransform="matrix(0.8735 0.4868 -0.4868 0.8735 -1682.1113 1436.3907)">
				<stop  offset="0" style="stop-color:#CF4A18"/>
				<stop  offset="0.2796" style="stop-color:#FCC846"/>
				<stop  offset="0.672" style="stop-color:#C23A0C"/>
				<stop  offset="1" style="stop-color:#EF6F1C"/>
			</linearGradient>
			<path fill="url(#SVGID_10_)" d="M5.7,154.3c-6.4,11.5,7.8,31.6,31.8,45s48.6,14.9,55,3.4l32.9-59L38.6,95.3L5.7,154.3z"/>
			<g>
				<g>
					<path fill="#BE4102" d="M95.8,196.6c0,0-0.2,0.4-0.7,1.2c-0.5,0.7-1.3,1.8-2.6,2.8c-1.3,1.1-3,2.1-5.2,2.9
						c-1.1,0.4-2.3,0.7-3.5,1c-1.3,0.3-2.6,0.3-4.1,0.4c-5.7,0.3-12.3-0.7-19-2.6c-6.8-1.9-13.7-4.9-20.2-8.5
						c-3.3-1.8-6.4-3.8-9.4-6c-3-2.1-5.8-4.4-8.4-6.8c-5.2-4.7-9.5-9.8-12.2-14.8c-0.7-1.2-1.3-2.4-1.8-3.7c-0.4-1.2-0.8-2.4-1-3.5
						c-0.5-2.3-0.5-4.3-0.3-5.9c0.2-1.6,0.7-2.9,1.1-3.7c0.4-0.8,0.6-1.2,0.6-1.2s-0.2,0.4-0.5,1.2c-0.3,0.8-0.6,2.1-0.7,3.7
						c-0.1,1.6,0.1,3.6,0.8,5.7c0.3,1.1,0.7,2.2,1.2,3.3c0.3,0.6,0.5,1.1,0.8,1.7c0.3,0.6,0.6,1.2,0.9,1.8c2.7,4.8,6.8,9.8,12,14.5
						c2.6,2.3,5.4,4.6,8.3,6.7c3,2.1,6.1,4.1,9.3,5.9c6.5,3.6,13.3,6.5,20,8.4c6.6,1.9,13.1,2.8,18.6,2.6c1.4,0,2.7-0.3,3.9-0.4
						c1.2-0.2,2.4-0.4,3.5-0.7c2.1-0.6,3.9-1.4,5.2-2.3c1.3-0.9,2.2-1.9,2.7-2.5C95.6,197,95.8,196.6,95.8,196.6z"/>
				</g>
				<g>
					<path fill="#BE4102" d="M99.2,190.6c0,0-0.2,0.4-0.7,1.2c-0.5,0.7-1.3,1.8-2.6,2.8c-1.3,1.1-3,2.1-5.2,2.9
						c-1.1,0.4-2.3,0.7-3.5,1c-1.3,0.3-2.6,0.3-4,0.4c-5.7,0.3-12.3-0.7-19-2.6c-6.8-1.9-13.7-4.9-20.2-8.5
						c-3.2-1.8-6.4-3.8-9.4-5.9c-3-2.1-5.8-4.4-8.4-6.8c-5.2-4.7-9.5-9.8-12.2-14.8c-0.7-1.2-1.3-2.4-1.8-3.7
						c-0.4-1.2-0.8-2.4-1-3.5c-0.5-2.3-0.5-4.3-0.3-5.9c0.2-1.6,0.7-2.9,1.1-3.7c0.4-0.8,0.6-1.2,0.6-1.2s-0.2,0.4-0.5,1.2
						c-0.3,0.8-0.6,2.1-0.7,3.7c-0.1,1.6,0.1,3.6,0.8,5.7c0.3,1.1,0.7,2.2,1.2,3.3c0.3,0.6,0.5,1.1,0.8,1.7c0.3,0.6,0.6,1.2,0.9,1.8
						c2.7,4.8,6.8,9.8,12,14.5c2.6,2.3,5.4,4.6,8.3,6.7c3,2.1,6.1,4.1,9.3,5.9c6.4,3.6,13.3,6.5,20,8.4c6.6,1.9,13.1,2.8,18.6,2.6
						c1.4,0,2.7-0.3,3.9-0.4c1.2-0.2,2.4-0.4,3.5-0.7c2.1-0.6,3.9-1.4,5.2-2.3c1.3-0.9,2.2-1.9,2.7-2.5
						C98.9,191,99.2,190.6,99.2,190.6z"/>
				</g>
				<g>
					<path fill="#BE4102" d="M102.5,184.6c0,0-0.2,0.4-0.7,1.2c-0.5,0.7-1.3,1.8-2.6,2.8c-1.3,1.1-3,2.1-5.2,2.9
						c-1.1,0.4-2.3,0.7-3.5,1c-1.3,0.3-2.6,0.3-4.1,0.4c-5.7,0.3-12.3-0.7-19-2.6c-6.8-1.9-13.7-4.9-20.2-8.5
						c-3.3-1.8-6.4-3.8-9.4-6c-3-2.1-5.8-4.4-8.4-6.8c-5.2-4.7-9.5-9.8-12.2-14.8c-0.7-1.2-1.3-2.4-1.8-3.7c-0.4-1.2-0.8-2.4-1-3.5
						c-0.5-2.3-0.5-4.3-0.3-5.9c0.2-1.6,0.7-2.9,1.1-3.7c0.4-0.8,0.6-1.2,0.6-1.2s-0.2,0.4-0.5,1.2c-0.3,0.8-0.6,2.1-0.7,3.7
						c-0.1,1.6,0.1,3.6,0.8,5.7c0.3,1.1,0.7,2.2,1.2,3.3c0.3,0.6,0.5,1.1,0.8,1.7c0.3,0.6,0.6,1.2,0.9,1.8c2.7,4.8,6.8,9.8,12,14.5
						c2.6,2.3,5.4,4.6,8.3,6.7c3,2.1,6.1,4.1,9.3,5.9c6.5,3.6,13.3,6.5,20,8.4c6.6,1.9,13.1,2.8,18.6,2.6c1.4,0,2.7-0.3,3.9-0.4
						c1.2-0.2,2.4-0.4,3.5-0.7c2.1-0.6,3.9-1.4,5.2-2.3c1.3-0.9,2.2-1.9,2.7-2.5C102.3,185,102.5,184.6,102.5,184.6z"/>
				</g>
				<g>
					<path fill="#BE4102" d="M105.9,178.6c0,0-0.2,0.4-0.7,1.2c-0.5,0.7-1.3,1.8-2.6,2.8c-1.3,1.1-3,2.1-5.2,2.9
						c-1.1,0.4-2.3,0.7-3.5,1c-1.3,0.3-2.6,0.3-4,0.4c-5.7,0.3-12.3-0.7-19-2.6c-6.8-1.9-13.7-4.9-20.2-8.5c-3.3-1.8-6.4-3.8-9.4-6
						c-3-2.1-5.8-4.4-8.4-6.8c-5.2-4.7-9.5-9.8-12.2-14.8c-0.7-1.2-1.3-2.4-1.8-3.7c-0.4-1.2-0.8-2.4-1-3.5
						c-0.5-2.3-0.5-4.3-0.3-5.9c0.2-1.6,0.7-2.9,1.1-3.7c0.4-0.8,0.6-1.2,0.6-1.2s-0.2,0.4-0.5,1.2c-0.3,0.8-0.6,2.1-0.7,3.7
						c-0.1,1.6,0.1,3.6,0.8,5.7c0.3,1.1,0.7,2.2,1.2,3.3c0.3,0.6,0.5,1.1,0.8,1.7c0.3,0.6,0.6,1.2,0.9,1.8c2.7,4.8,6.8,9.8,12,14.5
						c2.6,2.3,5.4,4.6,8.3,6.7c3,2.1,6.1,4.1,9.3,5.9c6.5,3.6,13.3,6.5,20,8.4c6.6,1.9,13.1,2.8,18.6,2.6c1.4,0,2.7-0.3,3.9-0.4
						c1.2-0.2,2.4-0.4,3.5-0.7c2.1-0.6,3.9-1.4,5.2-2.3c1.3-0.9,2.2-1.9,2.7-2.5C105.6,179,105.9,178.6,105.9,178.6z"/>
				</g>
				<g>
					<path fill="#BE4102" d="M109.2,172.6c0,0-0.2,0.4-0.7,1.2c-0.5,0.7-1.3,1.8-2.6,2.8c-1.3,1.1-3,2.1-5.2,2.9
						c-1.1,0.4-2.3,0.7-3.5,1c-1.3,0.3-2.6,0.3-4.1,0.4c-5.7,0.3-12.3-0.7-19-2.6c-6.8-1.9-13.7-4.9-20.2-8.5
						c-3.2-1.8-6.4-3.8-9.4-5.9c-3-2.1-5.8-4.4-8.4-6.8c-5.2-4.7-9.5-9.8-12.2-14.8c-0.7-1.2-1.3-2.4-1.8-3.7
						c-0.4-1.2-0.8-2.4-1-3.5c-0.5-2.3-0.5-4.3-0.3-5.9c0.2-1.6,0.7-2.9,1.1-3.7c0.4-0.8,0.6-1.2,0.6-1.2s-0.2,0.4-0.5,1.2
						c-0.3,0.8-0.6,2.1-0.7,3.7c-0.1,1.6,0.1,3.6,0.8,5.7c0.3,1.1,0.7,2.2,1.2,3.3c0.3,0.6,0.5,1.1,0.8,1.7c0.3,0.6,0.6,1.2,0.9,1.8
						c2.7,4.8,6.8,9.8,12,14.5c2.6,2.3,5.4,4.6,8.3,6.7c3,2.1,6.1,4.1,9.3,5.9c6.4,3.6,13.3,6.5,20,8.4c6.6,1.9,13.1,2.8,18.6,2.6
						c1.4,0,2.7-0.3,3.9-0.4c1.2-0.2,2.4-0.4,3.5-0.7c2.1-0.6,3.9-1.4,5.2-2.3c1.3-0.9,2.2-1.9,2.7-2.5
						C109,173,109.2,172.6,109.2,172.6z"/>
				</g>
				<g>
					<path fill="#BE4102" d="M112.6,166.6c0,0-0.2,0.4-0.7,1.2c-0.5,0.7-1.3,1.8-2.6,2.8c-1.3,1.1-3,2.1-5.2,2.9
						c-1.1,0.4-2.3,0.7-3.5,1c-1.3,0.3-2.6,0.3-4.1,0.4c-5.7,0.3-12.3-0.7-19-2.6c-6.8-1.9-13.7-4.9-20.2-8.5
						c-3.3-1.8-6.4-3.8-9.4-6c-3-2.1-5.8-4.4-8.4-6.8c-5.2-4.7-9.5-9.8-12.2-14.8c-0.7-1.2-1.3-2.4-1.8-3.7c-0.4-1.2-0.8-2.4-1-3.5
						c-0.5-2.3-0.5-4.3-0.3-5.9c0.2-1.6,0.7-2.9,1.1-3.7c0.4-0.8,0.6-1.2,0.6-1.2s-0.2,0.4-0.5,1.2c-0.3,0.8-0.6,2.1-0.7,3.7
						c-0.1,1.6,0.1,3.6,0.8,5.7c0.3,1.1,0.7,2.2,1.2,3.3c0.3,0.6,0.5,1.1,0.8,1.7c0.3,0.6,0.6,1.2,0.9,1.8c2.7,4.8,6.8,9.8,12,14.5
						c2.6,2.3,5.4,4.6,8.3,6.7c3,2.1,6.1,4.1,9.3,5.9c6.5,3.6,13.3,6.5,20,8.4c6.6,1.9,13.1,2.8,18.6,2.6c1.4,0,2.7-0.3,3.9-0.4
						c1.2-0.2,2.4-0.4,3.5-0.7c2.1-0.6,3.9-1.4,5.2-2.3c1.3-0.9,2.2-1.9,2.7-2.5C112.3,167,112.6,166.6,112.6,166.6z"/>
				</g>
				<g>
					<path fill="#BE4102" d="M115.9,160.6c0,0-0.2,0.4-0.7,1.2c-0.5,0.7-1.3,1.8-2.6,2.8c-1.3,1.1-3,2.1-5.2,2.9
						c-1.1,0.4-2.3,0.7-3.5,1c-1.3,0.3-2.6,0.3-4,0.4c-5.7,0.3-12.3-0.7-19-2.6c-6.8-1.9-13.7-4.9-20.2-8.5
						c-3.2-1.8-6.4-3.8-9.4-5.9c-3-2.1-5.8-4.4-8.4-6.8c-5.2-4.7-9.5-9.8-12.2-14.8c-0.7-1.2-1.3-2.4-1.8-3.7
						c-0.4-1.2-0.8-2.4-1-3.5c-0.5-2.3-0.5-4.3-0.3-5.9c0.2-1.6,0.7-2.9,1.1-3.7c0.4-0.8,0.6-1.2,0.6-1.2s-0.2,0.4-0.5,1.2
						c-0.3,0.8-0.6,2.1-0.7,3.7c-0.1,1.6,0.1,3.6,0.8,5.7c0.3,1.1,0.7,2.2,1.2,3.3c0.3,0.6,0.5,1.1,0.8,1.7c0.3,0.6,0.6,1.2,0.9,1.8
						c2.7,4.8,6.8,9.8,12,14.5c2.6,2.3,5.4,4.6,8.3,6.7c3,2.1,6.1,4.1,9.3,5.9c6.4,3.6,13.3,6.5,20,8.4c6.6,1.9,13.1,2.8,18.6,2.6
						c1.4,0,2.7-0.3,3.9-0.4c1.2-0.2,2.4-0.4,3.5-0.7c2.1-0.6,3.9-1.4,5.2-2.3c1.3-0.9,2.2-1.9,2.7-2.5
						C115.7,161,115.9,160.6,115.9,160.6z"/>
				</g>
				<g>
					<path fill="#BE4102" d="M119.3,154.6c0,0-0.2,0.4-0.7,1.2c-0.5,0.7-1.3,1.8-2.6,2.8c-1.3,1.1-3,2.1-5.2,2.9
						c-1.1,0.4-2.3,0.7-3.5,1c-1.3,0.3-2.6,0.3-4.1,0.4c-5.7,0.3-12.3-0.7-19-2.6c-6.8-1.9-13.7-4.9-20.2-8.5
						c-3.3-1.8-6.4-3.8-9.4-6c-3-2.1-5.8-4.4-8.4-6.8c-5.2-4.7-9.5-9.8-12.2-14.8c-0.7-1.2-1.3-2.4-1.8-3.7c-0.4-1.2-0.8-2.4-1-3.5
						c-0.5-2.3-0.5-4.3-0.3-5.9c0.2-1.6,0.7-2.9,1.1-3.7c0.4-0.8,0.6-1.2,0.6-1.2s-0.2,0.4-0.5,1.2c-0.3,0.8-0.6,2.1-0.7,3.7
						c-0.1,1.6,0.1,3.6,0.8,5.7c0.3,1.1,0.7,2.2,1.2,3.3c0.3,0.6,0.5,1.1,0.8,1.7c0.3,0.6,0.6,1.2,0.9,1.8c2.7,4.8,6.8,9.8,12,14.5
						c2.6,2.3,5.4,4.6,8.3,6.7c3,2.1,6.1,4.1,9.3,5.9c6.5,3.6,13.3,6.5,20,8.4c6.6,1.9,13.1,2.8,18.6,2.6c1.4,0,2.7-0.3,3.9-0.4
						c1.2-0.2,2.4-0.4,3.5-0.7c2.1-0.6,3.9-1.4,5.2-2.3c1.3-0.9,2.2-1.9,2.7-2.5C119,155,119.3,154.6,119.3,154.6z"/>
				</g>
				<g>
					<path fill="#BE4102" d="M122.6,148.6c0,0-0.2,0.4-0.7,1.2c-0.5,0.7-1.3,1.8-2.6,2.8c-1.3,1.1-3,2.1-5.2,2.9
						c-1.1,0.4-2.3,0.7-3.5,1c-1.3,0.3-2.6,0.3-4,0.4c-5.7,0.3-12.3-0.7-19-2.6c-6.8-1.9-13.7-4.9-20.2-8.5c-3.3-1.8-6.4-3.8-9.4-6
						c-3-2.1-5.8-4.4-8.4-6.8c-5.2-4.7-9.5-9.8-12.2-14.8c-0.7-1.2-1.3-2.4-1.8-3.7c-0.4-1.2-0.8-2.4-1-3.5
						c-0.5-2.3-0.5-4.3-0.3-5.9c0.2-1.6,0.7-2.9,1.1-3.7c0.4-0.8,0.6-1.2,0.6-1.2s-0.2,0.4-0.5,1.2c-0.3,0.8-0.6,2.1-0.7,3.7
						c-0.1,1.6,0.1,3.6,0.8,5.7c0.3,1.1,0.7,2.2,1.2,3.3c0.3,0.6,0.5,1.1,0.8,1.7c0.3,0.6,0.6,1.2,0.9,1.8c2.7,4.8,6.8,9.8,12,14.5
						c2.6,2.3,5.4,4.6,8.3,6.7c3,2.1,6.1,4.1,9.3,5.9c6.5,3.6,13.3,6.5,20,8.4c6.6,1.9,13.1,2.8,18.6,2.6c1.4,0,2.7-0.3,3.9-0.4
						c1.2-0.2,2.4-0.4,3.5-0.7c2.1-0.6,3.9-1.4,5.2-2.3c1.3-0.9,2.2-1.9,2.7-2.5C122.4,149,122.6,148.6,122.6,148.6z"/>
				</g>
			</g>
			
				<linearGradient id="SVGID_12_" gradientUnits="userSpaceOnUse" x1="931.8923" y1="-2001.306" x2="961.0618" y2="-2001.306" gradientTransform="matrix(0.8735 0.4868 -0.4868 0.8735 -1682.1113 1436.3907)">
				<stop  offset="0" style="stop-color:#353435"/>
				<stop  offset="1" style="stop-color:#202121"/>
			</linearGradient>
			<path fill="url(#SVGID_12_)" d="M128.7,161.2c-1.8-2-4.1-3.9-6.9-5.5c-5.5-3-11.2-3.9-15.1-2.7c0,0-5.9-11.2,3.9-14.4
				c9.8-3.2,24.9,10.3,24.9,10.3L128.7,161.2z"/>
			
				<linearGradient id="SVGID_14_" gradientUnits="userSpaceOnUse" x1="825.5406" y1="-2002.62" x2="893.5073" y2="-2002.62" gradientTransform="matrix(0.8735 0.4868 -0.4868 0.8735 -1682.1113 1436.3907)">
				<stop  offset="0" style="stop-color:#222222"/>
				<stop  offset="1" style="stop-color:#363837"/>
			</linearGradient>
			<path fill="url(#SVGID_14_)" d="M22.1,74c-0.6,1.1-1.1,2.2-1.6,3.4l40.1,67l8.4-15.1L26.6,66.6L22.1,74z"/>
			
				<linearGradient id="SVGID_16_" gradientUnits="userSpaceOnUse" x1="893.5073" y1="-2005.755" x2="974.0419" y2="-2005.755" gradientTransform="matrix(0.8735 0.4868 -0.4868 0.8735 -1682.1113 1436.3907)">
				<stop  offset="0" style="stop-color:#232323"/>
				<stop  offset="0.4032" style="stop-color:#414141"/>
				<stop  offset="1" style="stop-color:#464646"/>
			</linearGradient>
			<path fill="url(#SVGID_16_)" d="M102.3,160.9c-11.6-2.1-24-6.5-36.2-13.2c-1.8-1-3.7-2.1-5.4-3.2l6.5-11.7l91.9,0.3l-6,10.8
				c-0.4,0.8-0.8,1.7-1.2,2.5c-4.4,7.8-12.6,12.8-23.1,14.8l8.5-15.2l-3-6.2l-26.2-3.6l-2.9,9l3.2,4.7L102.3,160.9z"/>
			
				<linearGradient id="SVGID_18_" gradientUnits="userSpaceOnUse" x1="825.5406" y1="-2032.0145" x2="974.0419" y2="-2032.0145" gradientTransform="matrix(0.8735 0.4868 -0.4868 0.8735 -1682.1113 1436.3907)">
				<stop  offset="0" style="stop-color:#424242"/>
				<stop  offset="1" style="stop-color:#5F5F5F"/>
			</linearGradient>
			<path fill="url(#SVGID_18_)" d="M157.9,135.5c-4.4,7.8-12.6,12.8-23.1,14.8c-1.8-2-4.1-3.9-6.9-5.5c-8-4.4-16.5-4.3-19,0.3
				c-0.8,1.4-0.9,3.1-0.5,4.9c-11.6-2.1-24-6.5-36.2-13.2c-1.8-1-3.7-2.1-5.4-3.2l-40.1-67c0.4-1.1,1-2.3,1.6-3.4
				c4.2-7.6,12.1-12.5,22.1-14.6c1.5,1.5,3.4,2.8,5.4,4c7.9,4.4,16.5,4.3,19-0.3c0.7-1.2,0.9-2.5,0.6-4c12.3,1.9,25.6,6.4,38.5,13.6
				c1.4,0.8,2.7,1.5,4,2.3l41.2,68.8C158.7,133.9,158.3,134.7,157.9,135.5z"/>
		</g>
	</g>
	<g>
		<defs>
			<path id="SVGID_11770_" d="M-32.6,186.2c0,3.9-3.1,7-7,7h-329.7c-3.9,0-7-3.1-7-7V-295c0-3.9,3.1-7,7-7h329.7c3.9,0,7,3.1,7,7
				V186.2z"/>
		</defs>
		<clipPath id="SVGID_20_">
			<use xlink:href="#SVGID_11770_"  overflow="visible"/>
		</clipPath>
		<radialGradient id="SVGID_22_" cx="-227.858" cy="-6.3756" r="282.6265" gradientUnits="userSpaceOnUse">
			<stop  offset="1.976285e-002" style="stop-color:#FFFFFF"/>
			<stop  offset="0.7628" style="stop-color:#FFFFFF;stop-opacity:0"/>
		</radialGradient>
		<circle clip-path="url(#SVGID_20_)" fill="url(#SVGID_22_)" cx="-227.9" cy="-6.4" r="282.6"/>
		<radialGradient id="SVGID_24_" cx="-227.858" cy="-6.3756" r="282.6265" gradientUnits="userSpaceOnUse">
			<stop  offset="1.976285e-002" style="stop-color:#FFFFFF"/>
			<stop  offset="0.7628" style="stop-color:#FFFFFF;stop-opacity:0"/>
		</radialGradient>
		<circle clip-path="url(#SVGID_20_)" fill="url(#SVGID_24_)" cx="-227.9" cy="-6.4" r="282.6"/>
	</g>
</g>
<g id="Слой_2">
</g>
<g id="Слой_3">
</g>
<g id="Слой_4">
</g>
<g id="Слой_5">
</g>
</svg>
