<?xml version="1.0" encoding="utf-8"?>
<!-- Generator: Adobe Illustrator 17.1.0, SVG Export Plug-In . SVG Version: 6.00 Build 0)  -->
<!DOCTYPE svg PUBLIC "-//W3C//DTD SVG 1.1//EN" "http://www.w3.org/Graphics/SVG/1.1/DTD/svg11.dtd">
<svg version="1.1" xmlns="http://www.w3.org/2000/svg" xmlns:xlink="http://www.w3.org/1999/xlink" x="0px" y="0px" width="178.1px"
	 height="203.4px" viewBox="0 0 178.1 203.4" enable-background="new 0 0 178.1 203.4" xml:space="preserve">
<g id="Слой_1">
	<g>
		<defs>
			<path id="SVGID_11727_" d="M217.3,196.4c0,3.9-3.1,7-7,7H7c-3.9,0-7-3.1-7-7V-21c0-3.9,3.1-7,7-7h203.3c3.9,0,7,3.1,7,7V196.4z"
				/>
		</defs>
		<clipPath id="SVGID_2_">
			<use xlink:href="#SVGID_11727_"  overflow="visible"/>
		</clipPath>
		<radialGradient id="SVGID_4_" cx="87.8639" cy="109.4867" r="100.9711" gradientUnits="userSpaceOnUse">
			<stop  offset="0" style="stop-color:#FFFFFF"/>
			<stop  offset="0.6364" style="stop-color:#FFFFFF;stop-opacity:0"/>
		</radialGradient>
		<circle clip-path="url(#SVGID_2_)" fill="url(#SVGID_4_)" cx="87.9" cy="109.5" r="101"/>
		<g clip-path="url(#SVGID_2_)">
			
				<linearGradient id="SVGID_6_" gradientUnits="userSpaceOnUse" x1="-2528.7012" y1="486.3318" x2="-2523.0149" y2="486.3318" gradientTransform="matrix(0.8296 0.5583 -0.5583 0.8296 2468.1064 1092.6866)">
				<stop  offset="0" style="stop-color:#96A8B0"/>
				<stop  offset="1" style="stop-color:#CFD8DD"/>
			</linearGradient>
			<path fill="url(#SVGID_6_)" d="M79.3,123.4c-0.9,1.3-2.6,1.6-3.9,0.8l0,0c-1.3-0.9-1.6-2.6-0.8-3.9l48.3-71.7
				c0.9-1.3,2.6-1.6,3.9-0.8l0,0c1.3,0.9,1.6,2.6,0.8,3.9L79.3,123.4z"/>
			
				<linearGradient id="SVGID_8_" gradientUnits="userSpaceOnUse" x1="-2546.0725" y1="547.2269" x2="-2506.1504" y2="547.2269" gradientTransform="matrix(0.8296 0.5583 -0.5583 0.8296 2468.1064 1092.6866)">
				<stop  offset="0" style="stop-color:#E7BE94"/>
				<stop  offset="0.4" style="stop-color:#FEDDB0"/>
				<stop  offset="1" style="stop-color:#BD966C"/>
			</linearGradient>
			<path fill="url(#SVGID_8_)" d="M53.8,127.6c2.2-3.3,4.8-8.1,6.8-14.5c3.1-10,13.6-28.7,33.7-17.4c18,14.4,4.6,31.1-3.4,37.8
				c-5.2,4.3-8.7,8.4-10.9,11.7s-4.8,8.1-6.8,14.5c-3.1,10-13.6,28.7-33.7,17.4c-18-14.4-4.6-31.1,3.4-37.8
				C48,135,51.5,130.9,53.8,127.6z"/>
			
				<linearGradient id="SVGID_10_" gradientUnits="userSpaceOnUse" x1="-2529.6492" y1="637.3812" x2="-2523.9629" y2="637.3812" gradientTransform="matrix(0.8296 0.5583 -0.5583 0.8296 2468.1064 1092.6866)">
				<stop  offset="0" style="stop-color:#96A8B0"/>
				<stop  offset="1" style="stop-color:#CFD8DD"/>
			</linearGradient>
			<path fill="url(#SVGID_10_)" d="M-5.9,248.2c-0.9,1.3-2.6,1.6-3.9,0.8l0,0c-1.3-0.9-1.6-2.6-0.8-3.9l48.3-71.7
				c0.9-1.3,2.6-1.6,3.9-0.8l0,0c1.3,0.9,1.6,2.6,0.8,3.9L-5.9,248.2z"/>
			<g>
				<defs>
					<path id="SVGID_11733_" d="M53.8,127.6c2.2-3.3,4.8-8.1,6.8-14.5c3.1-10,13.6-28.7,33.7-17.4c18,14.4,4.6,31.1-3.4,37.8
						c-5.2,4.3-8.7,8.4-10.9,11.7s-4.8,8.1-6.8,14.5c-3.1,10-13.6,28.7-33.7,17.4c-18-14.4-4.6-31.1,3.4-37.8
						C48,135,51.5,130.9,53.8,127.6z"/>
				</defs>
				<clipPath id="SVGID_12_">
					<use xlink:href="#SVGID_11733_"  overflow="visible"/>
				</clipPath>
				
					<linearGradient id="SVGID_14_" gradientUnits="userSpaceOnUse" x1="-2549.5605" y1="554.1694" x2="-2503.3455" y2="554.1694" gradientTransform="matrix(0.8296 0.5583 -0.5583 0.8296 2468.1064 1092.6866)">
					<stop  offset="4.301075e-002" style="stop-color:#105EB0"/>
					<stop  offset="0.5" style="stop-color:#2288D9"/>
					<stop  offset="0.9301" style="stop-color:#0F4FA3"/>
				</linearGradient>
				<path clip-path="url(#SVGID_12_)" fill="none" stroke="url(#SVGID_14_)" stroke-width="4.8429" stroke-miterlimit="10" d="
					M42.5,133.4c0,0,25.5-4.3,35.8,24.1"/>
				
					<linearGradient id="SVGID_16_" gradientUnits="userSpaceOnUse" x1="-2549.5605" y1="535.3668" x2="-2503.3455" y2="535.3668" gradientTransform="matrix(0.8296 0.5583 -0.5583 0.8296 2468.1064 1092.6866)">
					<stop  offset="3.763441e-002" style="stop-color:#C62923"/>
					<stop  offset="0.5" style="stop-color:#F8413C"/>
					<stop  offset="0.9355" style="stop-color:#BB2618"/>
				</linearGradient>
				<path clip-path="url(#SVGID_12_)" fill="none" stroke="url(#SVGID_16_)" stroke-width="4.8429" stroke-miterlimit="10" d="
					M53,117.8c0,0,25.5-4.3,35.8,24.1"/>
				
					<linearGradient id="SVGID_18_" gradientUnits="userSpaceOnUse" x1="-2549.5605" y1="516.5817" x2="-2503.3455" y2="516.5817" gradientTransform="matrix(0.8296 0.5583 -0.5583 0.8296 2468.1064 1092.6866)">
					<stop  offset="0" style="stop-color:#CBA66C"/>
					<stop  offset="0.5" style="stop-color:#FAE082"/>
					<stop  offset="1" style="stop-color:#C8A178"/>
				</linearGradient>
				<path clip-path="url(#SVGID_12_)" fill="none" stroke="url(#SVGID_18_)" stroke-width="4.8429" stroke-miterlimit="10" d="
					M63.5,102.2c0,0,25.5-4.3,35.8,24.1"/>
				
					<linearGradient id="SVGID_20_" gradientUnits="userSpaceOnUse" x1="-2549.5605" y1="570.8067" x2="-2503.3455" y2="570.8067" gradientTransform="matrix(0.8296 0.5583 -0.5583 0.8296 2468.1064 1092.6866)">
					<stop  offset="3.225806e-002" style="stop-color:#7F593D"/>
					<stop  offset="0.5" style="stop-color:#946E4B"/>
					<stop  offset="0.9516" style="stop-color:#6F4F38"/>
				</linearGradient>
				<path clip-path="url(#SVGID_12_)" fill="none" stroke="url(#SVGID_20_)" stroke-width="4.8429" stroke-miterlimit="10" d="
					M33.3,147.2c0,0,25.5-4.3,35.8,24.1"/>
			</g>
		</g>
	</g>
</g>
<g id="Слой_2">
</g>
<g id="Слой_3">
</g>
<g id="Слой_4">
</g>
<g id="Слой_5">
</g>
</svg>
