<?xml version="1.0" encoding="utf-8"?>
<!-- Generator: Adobe Illustrator 17.1.0, SVG Export Plug-In . SVG Version: 6.00 Build 0)  -->
<!DOCTYPE svg PUBLIC "-//W3C//DTD SVG 1.1//EN" "http://www.w3.org/Graphics/SVG/1.1/DTD/svg11.dtd">
<svg version="1.1" xmlns="http://www.w3.org/2000/svg" xmlns:xlink="http://www.w3.org/1999/xlink" x="0px" y="0px" width="105.8px"
	 height="121.5px" viewBox="0 0 105.8 121.5" enable-background="new 0 0 105.8 121.5" xml:space="preserve">
<g id="Слой_1">
	<path opacity="0.5" fill="#5D687A" d="M105.8,101.5L85.1,82.9C78.9,89.8,70,93.7,60.8,93.7c-10.9,0-21-5.4-27.2-14.4
		c-3.8-5.5-5.8-11.9-5.8-18.6c0-6.7,2-13.1,5.8-18.7c6.1-8.9,16.3-14.3,27.1-14.3c9.3,0,18.1,3.9,24.4,10.8l20.6-18.7
		C94.2,7.2,77.8,0,60.8,0c-20,0-38.7,9.9-50,26.3C3.7,36.4,0,48.4,0,60.8C0,73.1,3.7,85,10.6,95.1c11.3,16.6,30,26.4,50.1,26.4
		C77.9,121.5,94.3,114.2,105.8,101.5z"/>
</g>
<g id="Слой_2">
</g>
<g id="Слой_3">
</g>
<g id="Слой_4">
</g>
<g id="Слой_5">
</g>
</svg>
