<?xml version="1.0" encoding="utf-8"?>
<!-- Generator: Adobe Illustrator 17.1.0, SVG Export Plug-In . SVG Version: 6.00 Build 0)  -->
<!DOCTYPE svg PUBLIC "-//W3C//DTD SVG 1.1//EN" "http://www.w3.org/Graphics/SVG/1.1/DTD/svg11.dtd">
<svg version="1.1" xmlns="http://www.w3.org/2000/svg" xmlns:xlink="http://www.w3.org/1999/xlink" x="0px" y="0px" width="105.8px"
	 height="121.5px" viewBox="0 0 105.8 121.5" enable-background="new 0 0 105.8 121.5" xml:space="preserve">
<g id="Слой_1">
	<linearGradient id="SVGID_2_" gradientUnits="userSpaceOnUse" x1="52.8781" y1="121.5018" x2="52.8781" y2="-3.537934e-010">
		<stop  offset="0" style="stop-color:#E6332A"/>
		<stop  offset="1" style="stop-color:#F9B233"/>
	</linearGradient>
	<path fill="url(#SVGID_2_)" d="M105.8,101.5L85.1,82.9C78.9,89.8,70,93.7,60.8,93.7c-10.9,0-21-5.4-27.2-14.4
		c-3.8-5.5-5.8-11.9-5.8-18.6c0-6.7,2-13.1,5.8-18.7c6.1-8.9,16.3-14.3,27.1-14.3c9.3,0,18.1,3.9,24.4,10.8l20.6-18.7
		C94.2,7.2,77.8,0,60.8,0c-20,0-38.7,9.9-50,26.3C3.7,36.4,0,48.4,0,60.8C0,73.1,3.7,85,10.6,95.1c11.3,16.6,30,26.4,50.1,26.4
		C77.9,121.5,94.3,114.2,105.8,101.5z"/>
	<g>
		<defs>
			<path id="SVGID_5665_" d="M160.7,62.9c0,8.4-69.8,13.8-75,19.7c-6.1,6.8-14.9,11.2-24.8,11.2c-18.3,0-33.2-14.8-33.2-33.2
				S42.5-41.7,60.9-41.7C118.3-41.7,160.7,44.6,160.7,62.9z"/>
		</defs>
		<clipPath id="SVGID_4_">
			<use xlink:href="#SVGID_5665_"  overflow="visible"/>
		</clipPath>
		<g clip-path="url(#SVGID_4_)">
			
				<linearGradient id="SVGID_6_" gradientUnits="userSpaceOnUse" x1="-1622.25" y1="3484.8911" x2="-1619.76" y2="3484.8911" gradientTransform="matrix(0.8157 0.5784 -0.5784 0.8157 3371.5349 -1819.6144)">
				<stop  offset="0" style="stop-color:#728C9A"/>
				<stop  offset="1" style="stop-color:#B1BEC3"/>
			</linearGradient>
			<polygon fill="url(#SVGID_6_)" points="20.8,105.4 18.8,104 46.1,65.4 48.1,66.9 			"/>
			
				<linearGradient id="SVGID_8_" gradientUnits="userSpaceOnUse" x1="-1601.2634" y1="3484.8911" x2="-1598.7736" y2="3484.8911" gradientTransform="matrix(0.8157 0.5784 -0.5784 0.8157 3371.5349 -1819.6144)">
				<stop  offset="0" style="stop-color:#728C9A"/>
				<stop  offset="1" style="stop-color:#B1BEC3"/>
			</linearGradient>
			<polygon fill="url(#SVGID_8_)" points="37.9,117.5 35.9,116.1 63.2,77.6 65.2,79 			"/>
			<linearGradient id="SVGID_10_" gradientUnits="userSpaceOnUse" x1="42.9011" y1="55.9463" x2="53.3792" y2="63.3765">
				<stop  offset="0" style="stop-color:#1776D0"/>
				<stop  offset="1" style="stop-color:#1566C2"/>
			</linearGradient>
			<path fill="url(#SVGID_10_)" d="M58,56.8l-9.7,12.9c-6.4-7-5.9-13.1-5.9-13.1l5.3-7L58,56.8z"/>
			<linearGradient id="SVGID_12_" gradientUnits="userSpaceOnUse" x1="52.8121" y1="63.4139" x2="74.3238" y2="78.6683">
				<stop  offset="0" style="stop-color:#A7B6BF"/>
				<stop  offset="1" style="stop-color:#CDD6DB"/>
			</linearGradient>
			<path fill="url(#SVGID_12_)" d="M79.2,71.8L74.1,79c0,0-8,4.1-20.2-4.5c-2.3-1.6-4.1-3.2-5.5-4.8L58,56.8L79.2,71.8z"/>
			
				<linearGradient id="SVGID_14_" gradientUnits="userSpaceOnUse" x1="-1630.3315" y1="3448.1931" x2="-1616.3292" y2="3448.1931" gradientTransform="matrix(0.8157 0.5784 -0.5784 0.8157 3371.5349 -1819.6144)">
				<stop  offset="0" style="stop-color:#0E5FB8"/>
				<stop  offset="1" style="stop-color:#1049AA"/>
			</linearGradient>
			<path fill="url(#SVGID_14_)" d="M53.4,63.3c-6.6-7.2-5.9-13.8-5.9-13.8s4.2-1.3,3.6-5.1l10.4,7.3l-3.7,5.3
				C57.8,56.9,57.9,61.7,53.4,63.3z"/>
			
				<linearGradient id="SVGID_16_" gradientUnits="userSpaceOnUse" x1="-1617.6276" y1="3448.5212" x2="-1591.5581" y2="3448.5212" gradientTransform="matrix(0.8157 0.5784 -0.5784 0.8157 3371.5349 -1819.6144)">
				<stop  offset="0" style="stop-color:#7C929F"/>
				<stop  offset="1" style="stop-color:#90A4AE"/>
			</linearGradient>
			<path fill="url(#SVGID_16_)" d="M79.1,71.9c0,0-8.4,4.5-20.5-4.1c-2.1-1.5-3.8-3-5.2-4.5c4.5-1.6,4.4-6.3,4.4-6.3l3.7-5.3
				l21.3,15.1C78.8,68.2,79.1,71.9,79.1,71.9z"/>
			<linearGradient id="SVGID_18_" gradientUnits="userSpaceOnUse" x1="57.6937" y1="34.9688" x2="68.53" y2="42.5565">
				<stop  offset="0" style="stop-color:#1776D0"/>
				<stop  offset="1" style="stop-color:#1566C2"/>
			</linearGradient>
			<path fill="url(#SVGID_18_)" d="M79.2,26.8L57.6,58.2c-7-7.2-6.5-13.9-6.5-13.9L69,19.6L79.2,26.8z"/>
			<linearGradient id="SVGID_20_" gradientUnits="userSpaceOnUse" x1="68.1395" y1="42.6965" x2="89.4099" y2="57.5902">
				<stop  offset="0" style="stop-color:#A7B6BF"/>
				<stop  offset="1" style="stop-color:#CDD6DB"/>
			</linearGradient>
			<path fill="url(#SVGID_20_)" d="M100.4,41.9L82.8,66.8c0,0-8.1,4.2-20.3-4.4c-1.9-1.4-3.6-2.8-4.9-4.2l21.7-31.4L100.4,41.9z"/>
			<path fill="#1E89E4" d="M95.8,26.8l-22.1,7.8c-5.1-5.4-7.2-11.5-4.7-15.1c3.3-4.6,12.9-3.4,21.6,2.8
				C92.6,23.8,94.3,25.3,95.8,26.8z"/>
			<path fill="#EBEEF1" d="M100.4,41.9c-3.3,4.6-12.9,3.4-21.6-2.8c-1.9-1.4-3.6-2.8-5.1-4.4l22.1-7.8
				C100.9,32.2,103,38.3,100.4,41.9z"/>
			
				<linearGradient id="SVGID_22_" gradientUnits="userSpaceOnUse" x1="-1621.2532" y1="3401.614" x2="-1600.3157" y2="3417.9722" gradientTransform="matrix(0.8157 0.5784 -0.5784 0.8157 3371.5349 -1819.6144)">
				<stop  offset="0.5" style="stop-color:#186BC5"/>
				<stop  offset="0.5" style="stop-color:#B4BEC5"/>
			</linearGradient>
			<path fill="url(#SVGID_22_)" d="M98.2,39.3c-2.3,3.2-9.9,1.6-17.1-3.4c-7.2-5.1-11.2-11.8-8.9-15c2.3-3.2,9.9-1.6,17.1,3.4
				C96.5,29.4,100.5,36.1,98.2,39.3z"/>
			
				<ellipse transform="matrix(0.8157 0.5784 -0.5784 0.8157 33.2966 -43.486)" fill="#D0D8DD" cx="84.9" cy="30.5" rx="15.9" ry="7.1"/>
			<g>
				<defs>
					
						<ellipse id="SVGID_5676_" transform="matrix(0.8157 0.5784 -0.5784 0.8157 33.2966 -43.486)" cx="84.9" cy="30.5" rx="15.9" ry="7.1"/>
				</defs>
				<clipPath id="SVGID_24_">
					<use xlink:href="#SVGID_5676_"  overflow="visible"/>
				</clipPath>
				
					<line clip-path="url(#SVGID_24_)" fill="none" stroke="#90A0A9" stroke-width="0.9729" stroke-miterlimit="10" x1="76.4" y1="12.8" x2="94.1" y2="48.1"/>
				
					<line clip-path="url(#SVGID_24_)" fill="none" stroke="#90A0A9" stroke-width="0.9729" stroke-miterlimit="10" x1="104.8" y1="33" x2="65.7" y2="27.9"/>
			</g>
		</g>
	</g>
</g>
<g id="Слой_2">
</g>
<g id="Слой_3">
</g>
<g id="Слой_4">
</g>
<g id="Слой_5">
</g>
</svg>
