<?xml version="1.0" encoding="utf-8"?>
<!-- Generator: Adobe Illustrator 17.1.0, SVG Export Plug-In . SVG Version: 6.00 Build 0)  -->
<!DOCTYPE svg PUBLIC "-//W3C//DTD SVG 1.1//EN" "http://www.w3.org/Graphics/SVG/1.1/DTD/svg11.dtd">
<svg version="1.1" xmlns="http://www.w3.org/2000/svg" xmlns:xlink="http://www.w3.org/1999/xlink" x="0px" y="0px" width="105.8px"
	 height="121.5px" viewBox="0 0 105.8 121.5" enable-background="new 0 0 105.8 121.5" xml:space="preserve">
<g id="Слой_1">
	<linearGradient id="SVGID_2_" gradientUnits="userSpaceOnUse" x1="52.8781" y1="121.5018" x2="52.8781" y2="-3.537934e-010">
		<stop  offset="0" style="stop-color:#009FE3"/>
		<stop  offset="1" style="stop-color:#00BE95"/>
	</linearGradient>
	<path fill="url(#SVGID_2_)" d="M105.8,101.5L85.1,82.9C78.9,89.8,70,93.7,60.8,93.7c-10.9,0-21-5.4-27.2-14.4
		c-3.8-5.5-5.8-11.9-5.8-18.6c0-6.7,2-13.1,5.8-18.7c6.1-8.9,16.3-14.3,27.1-14.3c9.3,0,18.1,3.9,24.4,10.8l20.6-18.7
		C94.2,7.2,77.8,0,60.8,0c-20,0-38.7,9.9-50,26.3C3.7,36.4,0,48.4,0,60.8C0,73.1,3.7,85,10.6,95.1c11.3,16.6,30,26.4,50.1,26.4
		C77.9,121.5,94.3,114.2,105.8,101.5z"/>
	<g>
		<defs>
			<path id="SVGID_5689_" d="M160.7,62.9c0,8.4-69.8,13.8-75,19.7c-6.1,6.8-14.9,11.2-24.8,11.2c-18.3,0-33.2-14.8-33.2-33.2
				S42.5-41.7,60.9-41.7C118.3-41.7,160.7,44.6,160.7,62.9z"/>
		</defs>
		<clipPath id="SVGID_4_">
			<use xlink:href="#SVGID_5689_"  overflow="visible"/>
		</clipPath>
		<g clip-path="url(#SVGID_4_)">
			<polygon fill="#91A3AD" points="48.3,67.3 46.6,67.5 35.1,87.4 34.4,84.2 45.4,65.2 45.2,62.6 49.4,55.5 52,60.8 			"/>
			<polygon fill="#91A3AD" points="54.2,77.9 52.6,78.1 41,98 40.4,94.8 51.4,75.8 51.2,73.3 55.4,66.1 58,71.4 			"/>
			<polygon fill="#91A3AD" points="60.1,88.5 58.5,88.6 46.9,108.5 46.2,105.3 57.2,86.3 57,83.8 61.2,76.6 63.9,82 			"/>
			<polygon fill="#D6DDE1" points="47.3,66.8 45.7,66.9 34.1,86.8 33.5,83.6 44.5,64.7 44.3,62.1 48.5,54.9 51.1,60.3 			"/>
			<polygon fill="#D6DDE1" points="53.3,77.4 51.7,77.5 40.1,97.5 39.4,94.2 50.5,75.3 50.3,72.7 54.4,65.5 57.1,70.9 			"/>
			<polygon fill="#D6DDE1" points="59.2,87.9 57.5,88.1 46,108 45.3,104.8 56.3,85.8 56.1,83.3 60.3,76.1 62.9,81.4 			"/>
			
				<linearGradient id="SVGID_6_" gradientUnits="userSpaceOnUse" x1="-1509.1304" y1="2918.751" x2="-1468.2394" y2="2918.751" gradientTransform="matrix(0.8647 0.5023 -0.5023 0.8647 2823.8142 -1728.3923)">
				<stop  offset="0" style="stop-color:#A9A9A9"/>
				<stop  offset="1" style="stop-color:#7B7B7B"/>
			</linearGradient>
			<polygon fill="url(#SVGID_6_)" points="56,31.7 65,31.7 85.7,61.9 73.6,62.1 			"/>
			
				<linearGradient id="SVGID_8_" gradientUnits="userSpaceOnUse" x1="-1509.1304" y1="2932.719" x2="-1478.6245" y2="2932.719" gradientTransform="matrix(0.8647 0.5023 -0.5023 0.8647 2823.8142 -1728.3923)">
				<stop  offset="0" style="stop-color:#6B6B6B"/>
				<stop  offset="1" style="stop-color:#454545"/>
			</linearGradient>
			<polygon fill="url(#SVGID_8_)" points="44.2,52 56,31.7 73.6,62.1 61.8,82.4 			"/>
			
				<linearGradient id="SVGID_10_" gradientUnits="userSpaceOnUse" x1="-1478.6245" y1="2938.3362" x2="-1468.2394" y2="2938.3362" gradientTransform="matrix(0.8647 0.5023 -0.5023 0.8647 2823.8142 -1728.3923)">
				<stop  offset="0" style="stop-color:#2C2C2C"/>
				<stop  offset="1" style="stop-color:#393939"/>
			</linearGradient>
			<polygon fill="url(#SVGID_10_)" points="73.6,62.1 85.7,61.9 73.9,82.2 61.8,82.4 			"/>
			<polygon fill="#ECF0F4" points="77.1,10.9 94.2,41.7 97.5,41.6 80,11 			"/>
			<polygon fill="#AFBEC5" points="94.2,41.7 89.5,49.8 92.8,49.7 97.5,41.6 			"/>
			<polygon fill="#AFBEC5" points="86.9,54.3 82.4,62 85.7,61.9 90.2,54.2 			"/>
			<path fill="#EBEFF3" d="M89.5,49.8c-0.8-1.5-2.6-0.6-3,1.2c-0.3,1.8,0.4,3.3,0.4,3.3l3.3-0.1c0,0-1.7-1.9-0.2-4.3L89.5,49.8z"/>
			
				<linearGradient id="SVGID_12_" gradientUnits="userSpaceOnUse" x1="-1501.3065" y1="2904.4636" x2="-1471.0151" y2="2904.4636" gradientTransform="matrix(0.8647 0.5023 -0.5023 0.8647 2823.8142 -1728.3923)">
				<stop  offset="0" style="stop-color:#EAEDF0"/>
				<stop  offset="1" style="stop-color:#D1DBDD"/>
			</linearGradient>
			<path fill="url(#SVGID_12_)" d="M94.2,41.7l-4.7,8.1c-0.8-1.5-2.6-0.6-3,1.2c-0.3,1.8,0.4,3.3,0.4,3.3L82.4,62L65,31.7l4.6-8
				c5-0.5,3-5.2,3-5.2l4.4-7.6L94.2,41.7z M80.4,30.8c-2.1-0.2-4.1,2.2-4.4,5.5c-0.4,3.3,1,6.1,3.1,6.4s4.1-2.2,4.4-5.5
				C83.9,33.9,82.5,31,80.4,30.8z"/>
			<path fill="#B1C0C8" d="M77.8,42.1c-1.3-1-2.1-3.3-1.8-5.8c0.4-3.3,2.3-5.7,4.4-5.5c1.7,0.2,3,2.2,3.1,4.8
				c-0.4-1.8-1.4-3.1-2.7-3.3c-1.9-0.2-3.7,2.1-4.1,5.1C76.5,39.3,77,41,77.8,42.1z"/>
		</g>
	</g>
</g>
<g id="Слой_2">
</g>
<g id="Слой_3">
</g>
<g id="Слой_4">
</g>
<g id="Слой_5">
</g>
</svg>
