<?xml version="1.0" encoding="utf-8"?>
<!-- Generator: Adobe Illustrator 17.1.0, SVG Export Plug-In . SVG Version: 6.00 Build 0)  -->
<!DOCTYPE svg PUBLIC "-//W3C//DTD SVG 1.1//EN" "http://www.w3.org/Graphics/SVG/1.1/DTD/svg11.dtd">
<svg version="1.1" xmlns="http://www.w3.org/2000/svg" xmlns:xlink="http://www.w3.org/1999/xlink" x="0px" y="0px" width="105.8px"
	 height="121.5px" viewBox="0 0 105.8 121.5" enable-background="new 0 0 105.8 121.5" xml:space="preserve">
<g id="Слой_1">
	<linearGradient id="SVGID_2_" gradientUnits="userSpaceOnUse" x1="52.8781" y1="121.5018" x2="52.8781" y2="-3.537934e-010">
		<stop  offset="0" style="stop-color:#861D73"/>
		<stop  offset="0.1768" style="stop-color:#674390"/>
		<stop  offset="0.4527" style="stop-color:#3B78B8"/>
		<stop  offset="0.6919" style="stop-color:#1B9FD5"/>
		<stop  offset="0.8822" style="stop-color:#07B7E7"/>
		<stop  offset="1" style="stop-color:#00C0EE"/>
	</linearGradient>
	<path fill="url(#SVGID_2_)" d="M105.8,101.5L85.1,82.9C78.9,89.8,70,93.7,60.8,93.7c-10.9,0-21-5.4-27.2-14.4
		c-3.8-5.5-5.8-11.9-5.8-18.6c0-6.7,2-13.1,5.8-18.7c6.1-8.9,16.3-14.3,27.1-14.3c9.3,0,18.1,3.9,24.4,10.8l20.6-18.7
		C94.2,7.2,77.8,0,60.8,0c-20,0-38.7,9.9-50,26.3C3.7,36.4,0,48.4,0,60.8C0,73.1,3.7,85,10.6,95.1c11.3,16.6,30,26.4,50.1,26.4
		C77.9,121.5,94.3,114.2,105.8,101.5z"/>
	<g>
		<defs>
			<path id="SVGID_5678_" d="M160.6,62.9c0,8.4-69.8,13.8-75,19.7c-6.1,6.8-14.9,11.2-24.8,11.2c-18.3,0-33.2-14.8-33.2-33.2
				S42.5-41.6,60.8-41.6C118.2-41.6,160.6,44.6,160.6,62.9z"/>
		</defs>
		<clipPath id="SVGID_4_">
			<use xlink:href="#SVGID_5678_"  overflow="visible"/>
		</clipPath>
		<g clip-path="url(#SVGID_4_)">
			
				<linearGradient id="SVGID_6_" gradientUnits="userSpaceOnUse" x1="-1436.316" y1="2931.4373" x2="-1433.1289" y2="2931.4373" gradientTransform="matrix(0.8709 0.4915 -0.4915 0.8709 2775.9104 -1823.061)">
				<stop  offset="0" style="stop-color:#D5D9E0"/>
				<stop  offset="1" style="stop-color:#B8C0C5"/>
			</linearGradient>
			<path fill="url(#SVGID_6_)" d="M75.1,46.6c-0.4,0.8-1.4,1-2.2,0.6l0,0c-0.8-0.4-1-1.4-0.6-2.2L96.2,2.8c0.4-0.8,1.4-1,2.2-0.6
				l0,0c0.8,0.4,1,1.4,0.6,2.2L75.1,46.6z"/>
			
				<linearGradient id="SVGID_8_" gradientUnits="userSpaceOnUse" x1="-1446.0524" y1="2965.5684" x2="-1423.6764" y2="2965.5684" gradientTransform="matrix(0.8709 0.4915 -0.4915 0.8709 2775.9104 -1823.061)">
				<stop  offset="0" style="stop-color:#E7BE94"/>
				<stop  offset="0.4" style="stop-color:#FEDDB0"/>
				<stop  offset="1" style="stop-color:#BD966C"/>
			</linearGradient>
			<path fill="url(#SVGID_8_)" d="M61.1,50c1.1-2,2.3-4.8,3.1-8.4c1.3-5.7,6.3-16.6,18.1-11.2c10.7,7.3,4,17.2-0.3,21.3
				c-2.7,2.6-4.5,5.1-5.6,7c-1.1,2-2.3,4.8-3.1,8.4C72,72.8,67,83.7,55.2,78.3c-10.7-7.3-4-17.2,0.3-21.3C58.2,54.5,60,52,61.1,50z"
				/>
			
				<linearGradient id="SVGID_10_" gradientUnits="userSpaceOnUse" x1="-1436.8473" y1="3016.0989" x2="-1433.6602" y2="3016.0989" gradientTransform="matrix(0.8709 0.4915 -0.4915 0.8709 2775.9104 -1823.061)">
				<stop  offset="0" style="stop-color:#D5D9E0"/>
				<stop  offset="1" style="stop-color:#B8C0C5"/>
			</linearGradient>
			<path fill="url(#SVGID_10_)" d="M33.1,120.1c-0.4,0.8-1.4,1-2.2,0.6l0,0c-0.8-0.4-1-1.4-0.6-2.2l23.8-42.2c0.4-0.8,1.4-1,2.2-0.6
				l0,0c0.8,0.4,1,1.4,0.6,2.2L33.1,120.1z"/>
			<g>
				<defs>
					<path id="SVGID_5683_" d="M61.1,50c1.1-2,2.3-4.8,3.1-8.4c1.3-5.7,6.3-16.6,18.1-11.2c10.7,7.3,4,17.2-0.3,21.3
						c-2.7,2.6-4.5,5.1-5.6,7c-1.1,2-2.3,4.8-3.1,8.4C72,72.8,67,83.7,55.2,78.3c-10.7-7.3-4-17.2,0.3-21.3C58.2,54.5,60,52,61.1,50
						z"/>
				</defs>
				<clipPath id="SVGID_12_">
					<use xlink:href="#SVGID_5683_"  overflow="visible"/>
				</clipPath>
				
					<linearGradient id="SVGID_14_" gradientUnits="userSpaceOnUse" x1="-1448.7404" y1="2969.3574" x2="-1421.4775" y2="2969.3574" gradientTransform="matrix(0.8709 0.4915 -0.4915 0.8709 2775.9104 -1823.061)">
					<stop  offset="4.301075e-002" style="stop-color:#105EB0"/>
					<stop  offset="0.5" style="stop-color:#2288D9"/>
					<stop  offset="0.9301" style="stop-color:#0F4FA3"/>
				</linearGradient>
				<path clip-path="url(#SVGID_12_)" fill="none" stroke="url(#SVGID_14_)" stroke-width="4.8429" stroke-miterlimit="10" d="
					M55.1,53.8c0,0,14-3.5,21,11.9"/>
				
					<linearGradient id="SVGID_16_" gradientUnits="userSpaceOnUse" x1="-1448.7404" y1="2958.8188" x2="-1421.4775" y2="2958.8188" gradientTransform="matrix(0.8709 0.4915 -0.4915 0.8709 2775.9104 -1823.061)">
					<stop  offset="3.763441e-002" style="stop-color:#C62923"/>
					<stop  offset="0.5" style="stop-color:#F8413C"/>
					<stop  offset="0.9355" style="stop-color:#BB2618"/>
				</linearGradient>
				<path clip-path="url(#SVGID_12_)" fill="none" stroke="url(#SVGID_16_)" stroke-width="4.8429" stroke-miterlimit="10" d="
					M60.2,44.6c0,0,14-3.5,21,11.9"/>
				
					<linearGradient id="SVGID_18_" gradientUnits="userSpaceOnUse" x1="-1448.7404" y1="2948.29" x2="-1421.4775" y2="2948.29" gradientTransform="matrix(0.8709 0.4915 -0.4915 0.8709 2775.9104 -1823.061)">
					<stop  offset="0" style="stop-color:#CBA66C"/>
					<stop  offset="0.5" style="stop-color:#FAE082"/>
					<stop  offset="1" style="stop-color:#C8A178"/>
				</linearGradient>
				<path clip-path="url(#SVGID_12_)" fill="none" stroke="url(#SVGID_18_)" stroke-width="4.8429" stroke-miterlimit="10" d="
					M65.4,35.4c0,0,14-3.5,21,11.9"/>
				
					<linearGradient id="SVGID_20_" gradientUnits="userSpaceOnUse" x1="-1448.7404" y1="2978.6824" x2="-1421.4775" y2="2978.6824" gradientTransform="matrix(0.8709 0.4915 -0.4915 0.8709 2775.9104 -1823.061)">
					<stop  offset="3.225806e-002" style="stop-color:#7F593D"/>
					<stop  offset="0.5" style="stop-color:#946E4B"/>
					<stop  offset="0.9516" style="stop-color:#6F4F38"/>
				</linearGradient>
				<path clip-path="url(#SVGID_12_)" fill="none" stroke="url(#SVGID_20_)" stroke-width="4.8429" stroke-miterlimit="10" d="
					M50.5,61.9c0,0,14-3.5,21,11.9"/>
			</g>
		</g>
	</g>
</g>
<g id="Слой_2">
</g>
<g id="Слой_3">
</g>
<g id="Слой_4">
</g>
<g id="Слой_5">
</g>
</svg>
