<?xml version="1.0" encoding="utf-8"?>
<!-- Generator: Adobe Illustrator 17.1.0, SVG Export Plug-In . SVG Version: 6.00 Build 0)  -->
<!DOCTYPE svg PUBLIC "-//W3C//DTD SVG 1.1//EN" "http://www.w3.org/Graphics/SVG/1.1/DTD/svg11.dtd">
<svg version="1.1" xmlns="http://www.w3.org/2000/svg" xmlns:xlink="http://www.w3.org/1999/xlink" x="0px" y="0px" width="105.8px"
	 height="121.5px" viewBox="0 0 105.8 121.5" enable-background="new 0 0 105.8 121.5" xml:space="preserve">
<g id="Слой_1">
	<linearGradient id="SVGID_2_" gradientUnits="userSpaceOnUse" x1="52.8781" y1="121.5018" x2="52.8781" y2="-3.537934e-010">
		<stop  offset="0" style="stop-color:#861D73"/>
		<stop  offset="0.1768" style="stop-color:#674390"/>
		<stop  offset="0.4527" style="stop-color:#3B78B8"/>
		<stop  offset="0.6919" style="stop-color:#1B9FD5"/>
		<stop  offset="0.8822" style="stop-color:#07B7E7"/>
		<stop  offset="1" style="stop-color:#00C0EE"/>
	</linearGradient>
	<path fill="url(#SVGID_2_)" d="M105.8,101.5L85.1,82.9C78.9,89.8,70,93.7,60.8,93.7c-10.9,0-21-5.4-27.2-14.4
		c-3.8-5.5-5.8-11.9-5.8-18.6c0-6.7,2-13.1,5.8-18.7c6.1-8.9,16.3-14.3,27.1-14.3c9.3,0,18.1,3.9,24.4,10.8l20.6-18.7
		C94.2,7.2,77.8,0,60.8,0c-20,0-38.7,9.9-50,26.3C3.7,36.4,0,48.4,0,60.8C0,73.1,3.7,85,10.6,95.1c11.3,16.6,30,26.4,50.1,26.4
		C77.9,121.5,94.3,114.2,105.8,101.5z"/>
	<g>
		<defs>
			<path id="SVGID_5703_" d="M160.6,62.9c0,8.4-69.8,13.8-75,19.7c-6.1,6.8-14.9,11.2-24.8,11.2c-18.3,0-33.2-14.8-33.2-33.2
				S42.5-41.6,60.8-41.6C118.2-41.6,160.6,44.6,160.6,62.9z"/>
		</defs>
		<clipPath id="SVGID_4_">
			<use xlink:href="#SVGID_5703_"  overflow="visible"/>
		</clipPath>
		<g clip-path="url(#SVGID_4_)">
			<polygon fill="#454547" points="100.1,26.8 36.4,107.3 35.7,112 99,32.8 			"/>
			
				<linearGradient id="SVGID_6_" gradientUnits="userSpaceOnUse" x1="1563.4406" y1="-2265.5686" x2="1654.5173" y2="-2265.5686" gradientTransform="matrix(0.9308 -0.3655 0.3655 0.9308 -604.1212 2760.4214)">
				<stop  offset="0" style="stop-color:#535353"/>
				<stop  offset="1" style="stop-color:#757575"/>
			</linearGradient>
			<polygon fill="url(#SVGID_6_)" points="100.1,26.8 36.4,107.3 30.7,99.4 94,20.1 			"/>
			<g>
				<polygon fill="#91A3AD" points="12.7,95.4 15,101.3 14.6,103.4 19.3,115.4 18.6,116.4 17.6,116.3 13.2,105.1 11.9,104.8 
					9.7,99.2 8,98.9 7.7,98 10.9,96.1 				"/>
				<polygon fill="#D6DDE1" points="12.7,104.5 14.1,104.8 18.6,116.4 20,114.8 15.4,103.1 15.9,100.9 13.4,94.5 10.4,98.4 				"/>
				<polygon fill="#E9EDF1" points="10.7,94.1 13.4,94.5 10.4,98.4 7.7,97.9 				"/>
			</g>
			
				<linearGradient id="SVGID_8_" gradientUnits="userSpaceOnUse" x1="1538.8704" y1="-2244.511" x2="1565.8075" y2="-2244.511" gradientTransform="matrix(0.9308 -0.3655 0.3655 0.9308 -604.1212 2760.4214)">
				<stop  offset="0" style="stop-color:#3E3E3E"/>
				<stop  offset="1" style="stop-color:#252525"/>
			</linearGradient>
			<polygon fill="url(#SVGID_8_)" points="35.7,112 10.4,108.3 5.4,102.2 5.5,95.6 30.7,99.4 36.4,107.3 			"/>
			
				<linearGradient id="SVGID_10_" gradientUnits="userSpaceOnUse" x1="1541.3146" y1="-2276.623" x2="1651.3287" y2="-2276.623" gradientTransform="matrix(0.9308 -0.3655 0.3655 0.9308 -604.1212 2760.4214)">
				<stop  offset="0" style="stop-color:#616161"/>
				<stop  offset="1" style="stop-color:#ABABAB"/>
			</linearGradient>
			<polygon fill="url(#SVGID_10_)" points="94,20.1 30.7,99.4 5.5,95.6 68.8,16.4 			"/>
			
				<ellipse transform="matrix(0.9308 -0.3655 0.3655 0.9308 -32.363 14.1508)" fill="#424242" cx="21.2" cy="92.6" rx="4.7" ry="2.7"/>
			<path fill="#212121" d="M25.6,90.8c0.4,1-0.2,2.2-1.4,3.1c0.7-0.8,1-1.7,0.7-2.4c-0.5-1.4-2.7-1.8-4.9-0.9
				c-2.1,0.8-3.4,2.5-3,3.9c0-0.1-0.1-0.1-0.1-0.2c-0.5-1.4,1-3.3,3.4-4.2C22.6,89.1,25.1,89.4,25.6,90.8z"/>
			<g>
				<polygon fill="#91A3AD" points="44.1,99.8 46.5,105.7 46,107.8 50.7,119.9 50.1,120.8 49,120.7 44.7,109.6 43.3,109.2 
					41.1,103.6 39.5,103.3 39.1,102.4 42.4,100.5 				"/>
				<polygon fill="#D6DDE1" points="44.2,108.9 45.5,109.2 50.1,120.8 51.4,119.2 46.8,107.5 47.3,105.4 44.8,99 41.8,102.8 				"/>
				<polygon fill="#E9EDF1" points="42.2,98.5 44.8,98.9 41.8,102.8 39.1,102.4 				"/>
			</g>
			<g>
				<polygon fill="#91A3AD" points="50,92.4 52.4,98.3 51.9,100.4 56.6,112.4 55.9,113.4 54.9,113.3 50.6,102.2 49.2,101.8 47,96.2 
					45.3,95.9 45,95 48.2,93.1 				"/>
				<polygon fill="#D6DDE1" points="50,101.5 51.4,101.8 55.9,113.4 57.3,111.8 52.7,100.1 53.2,98 50.7,91.6 47.7,95.4 				"/>
				<polygon fill="#E9EDF1" points="48,91.1 50.7,91.5 47.7,95.4 45,95 				"/>
			</g>
			<g>
				<polygon fill="#91A3AD" points="55.9,84.9 58.2,90.8 57.7,92.9 62.4,104.9 61.8,105.9 60.8,105.8 56.4,94.6 55,94.3 52.8,88.7 
					51.2,88.4 50.8,87.5 54.1,85.6 				"/>
				<polygon fill="#D6DDE1" points="55.9,94 57.2,94.3 61.8,105.9 63.1,104.3 58.6,92.6 59,90.5 56.5,84 53.5,87.9 				"/>
				<polygon fill="#E9EDF1" points="53.9,83.6 56.6,84 53.5,87.9 50.8,87.5 				"/>
			</g>
			<g>
				<polygon fill="#91A3AD" points="61.7,77.5 64.1,83.4 63.6,85.5 68.3,97.5 67.7,98.5 66.6,98.4 62.3,87.2 60.9,86.9 58.7,81.3 
					57.1,81 56.7,80.1 60,78.2 				"/>
				<polygon fill="#D6DDE1" points="61.8,86.6 63.1,86.9 67.7,98.5 69,96.9 64.4,85.2 64.9,83 62.4,76.6 59.4,80.5 				"/>
				<polygon fill="#E9EDF1" points="59.8,76.2 62.4,76.6 59.4,80.5 56.7,80 				"/>
			</g>
			<g>
				<polygon fill="#91A3AD" points="67.6,69.9 70,75.8 69.5,77.9 74.2,89.9 73.6,90.9 72.5,90.8 68.2,79.6 66.8,79.3 64.6,73.7 
					63,73.4 62.6,72.5 65.9,70.6 				"/>
				<polygon fill="#D6DDE1" points="67.7,79 69,79.3 73.6,90.9 74.9,89.3 70.3,77.6 70.8,75.5 68.3,69.1 65.3,72.9 				"/>
				<polygon fill="#E9EDF1" points="65.7,68.6 68.3,69 65.3,72.9 62.6,72.5 				"/>
			</g>
			<g>
				<polygon fill="#91A3AD" points="73.5,62.5 75.8,68.4 75.4,70.5 80.1,82.5 79.4,83.5 78.4,83.4 74.1,72.2 72.7,71.9 70.5,66.3 
					68.8,66 68.5,65.1 71.7,63.2 				"/>
				<polygon fill="#D6DDE1" points="73.5,71.6 74.9,71.9 79.4,83.5 80.8,81.9 76.2,70.2 76.7,68.1 74.2,61.6 71.2,65.5 				"/>
				<polygon fill="#E9EDF1" points="71.5,61.2 74.2,61.6 71.2,65.5 68.5,65 				"/>
			</g>
			<g>
				<polygon fill="#91A3AD" points="79.4,55 81.7,60.9 81.2,63 85.9,75 85.3,76 84.3,75.9 79.9,64.7 78.5,64.4 76.3,58.8 74.7,58.5 
					74.3,57.6 77.6,55.7 				"/>
				<polygon fill="#D6DDE1" points="79.4,64.1 80.7,64.4 85.3,76 86.6,74.3 82,62.7 82.5,60.5 80,54.1 77,58 				"/>
				<polygon fill="#E9EDF1" points="77.4,53.7 80.1,54.1 77,58 74.3,57.5 				"/>
			</g>
			<g>
				<polygon fill="#91A3AD" points="85.2,47.5 87.6,53.5 87.1,55.6 91.8,67.6 91.2,68.6 90.1,68.4 85.8,57.3 84.4,57 82.2,51.4 
					80.6,51.1 80.2,50.2 83.5,48.2 				"/>
				<polygon fill="#D6DDE1" points="85.3,56.7 86.6,57 91.2,68.6 92.5,66.9 87.9,55.3 88.4,53.1 85.9,46.7 82.9,50.6 				"/>
				<polygon fill="#E9EDF1" points="83.3,46.3 85.9,46.7 82.9,50.6 80.2,50.1 				"/>
			</g>
			<g>
				<polygon fill="#91A3AD" points="91.2,39.9 93.5,45.9 93,48 97.7,60 97.1,61 96.1,60.9 91.7,49.7 90.4,49.4 88.2,43.8 86.5,43.5 
					86.1,42.6 89.4,40.6 				"/>
				<polygon fill="#D6DDE1" points="91.2,49.1 92.5,49.4 97.1,61 98.4,59.3 93.9,47.7 94.3,45.5 91.8,39.1 88.8,43 				"/>
				<polygon fill="#E9EDF1" points="89.2,38.7 91.9,39.1 88.8,43 86.1,42.5 				"/>
			</g>
			<g>
				<polygon fill="#91A3AD" points="97.1,32.5 99.4,38.5 98.9,40.6 103.6,52.6 103,53.6 102,53.4 97.6,42.3 96.2,42 94,36.4 
					92.4,36.1 92,35.2 95.3,33.2 				"/>
				<polygon fill="#D6DDE1" points="97.1,41.7 98.4,42 103,53.6 104.3,51.9 99.7,40.2 100.2,38.1 97.7,31.7 94.7,35.6 				"/>
				<polygon fill="#E9EDF1" points="95.1,31.3 97.8,31.7 94.7,35.6 92,35.1 				"/>
			</g>
		</g>
	</g>
</g>
<g id="Слой_2">
</g>
<g id="Слой_3">
</g>
<g id="Слой_4">
</g>
<g id="Слой_5">
</g>
</svg>
